%FSDAX42Y42*%
%MOMM*%
%SFA1B1*%

%IPPOS*%
%AMD10*
4,1,8,0.779780,0.599440,-0.779780,0.599440,-0.899160,0.480060,-0.899160,-0.480060,-0.779780,-0.599440,0.779780,-0.599440,0.899160,-0.480060,0.899160,0.480060,0.779780,0.599440,0.0*
1,1,0.240000,0.779780,0.480060*
1,1,0.240000,-0.779780,0.480060*
1,1,0.240000,-0.779780,-0.480060*
1,1,0.240000,0.779780,-0.480060*
%
%AMD11*
4,1,8,-0.314960,-0.701040,0.314960,-0.701040,0.525780,-0.490220,0.525780,0.490220,0.314960,0.701040,-0.314960,0.701040,-0.525780,0.490220,-0.525780,-0.490220,-0.314960,-0.701040,0.0*
1,1,0.420000,-0.314960,-0.490220*
1,1,0.420000,0.314960,-0.490220*
1,1,0.420000,0.314960,0.490220*
1,1,0.420000,-0.314960,0.490220*
%
%AMD13*
4,1,8,0.294640,-0.695960,0.695960,-0.294640,0.695960,-0.025400,-0.025400,0.695960,-0.294640,0.695960,-0.695960,0.294640,-0.695960,0.025400,0.025400,-0.695960,0.294640,-0.695960,0.0*
1,1,0.380000,0.160020,-0.561340*
1,1,0.380000,0.561340,-0.160020*
1,1,0.380000,-0.160020,0.561340*
1,1,0.380000,-0.561340,0.160020*
%
%AMD14*
4,1,8,-0.505460,-0.299720,0.505460,-0.299720,0.624840,-0.180340,0.624840,0.180340,0.505460,0.299720,-0.505460,0.299720,-0.624840,0.180340,-0.624840,-0.180340,-0.505460,-0.299720,0.0*
1,1,0.240000,-0.505460,-0.180340*
1,1,0.240000,0.505460,-0.180340*
1,1,0.240000,0.505460,0.180340*
1,1,0.240000,-0.505460,0.180340*
%
%AMD15*
4,1,8,0.701040,-0.284480,0.701040,0.284480,0.510540,0.474980,-0.510540,0.474980,-0.701040,0.284480,-0.701040,-0.284480,-0.510540,-0.474980,0.510540,-0.474980,0.701040,-0.284480,0.0*
1,1,0.380000,0.510540,-0.284480*
1,1,0.380000,0.510540,0.284480*
1,1,0.380000,-0.510540,0.284480*
1,1,0.380000,-0.510540,-0.284480*
%
G04~CAMADD=10~8~0.0~0.0~708.7~472.4~47.2~0.0~15~0.0~0.0~0.0~0.0~0~0.0~0.0~0.0~0.0~0~0.0~0.0~0.0~0.0~708.7~472.4*
%ADD10D10*%
G04~CAMADD=11~8~0.0~0.0~413.4~551.2~82.7~0.0~15~0.0~0.0~0.0~0.0~0~0.0~0.0~0.0~0.0~0~0.0~0.0~0.0~180.0~414.0~552.0*
%ADD11D11*%
%ADD12O,0.499999X2.999994*%
G04~CAMADD=13~8~0.0~0.0~374.0~551.2~74.8~0.0~15~0.0~0.0~0.0~0.0~0~0.0~0.0~0.0~0.0~0~0.0~0.0~0.0~225.0~592.0~592.0*
%ADD13D13*%
G04~CAMADD=14~8~0.0~0.0~492.1~236.2~47.2~0.0~15~0.0~0.0~0.0~0.0~0~0.0~0.0~0.0~0.0~0~0.0~0.0~0.0~180.0~492.0~236.0*
%ADD14D14*%
G04~CAMADD=15~8~0.0~0.0~374.0~551.2~74.8~0.0~15~0.0~0.0~0.0~0.0~0~0.0~0.0~0.0~0.0~0~0.0~0.0~0.0~270.0~552.0~374.0*
%ADD15D15*%
%ADD16C,0.499999*%
%ADD17C,0.999998*%
%ADD18C,0.250000*%
%ADD19C,2.499995*%
%ADD20C,1.999996*%
%ADD21C,6.999986*%
%ADD22O,0.499999X1.999996*%
%ADD23C,2.999994*%
%ADD24R,1.999996X1.999996*%
%LN3dp-glcd-1*%
%LPD*%
G36*
X011999Y002499D02*
X002499Y002499D01*
X002499Y007199D01*
X011999Y007199D01*
X011999Y002499D01*
G37*
%LN3dp-glcd-2*%
%LPC*%
G36*
X011338Y005274D02*
X011024Y005274D01*
X011024Y004960D01*
X011052Y004962D01*
X011104Y004975D01*
X011154Y004995D01*
X011199Y005023D01*
X011240Y005058D01*
X011275Y005099D01*
X011303Y005144D01*
X011323Y005194D01*
X011336Y005246D01*
X011338Y005274D01*
G37*
G36*
X011699Y005024D02*
X011637Y005024D01*
X011645Y005004D01*
X011660Y004985D01*
X011679Y004970D01*
X011699Y004962D01*
X011699Y005024D01*
G37*
G36*
X011811Y005024D02*
X011749Y005024D01*
X011749Y004962D01*
X011769Y004970D01*
X011788Y004985D01*
X011803Y005004D01*
X011811Y005024D01*
G37*
G36*
X010974Y005274D02*
X010660Y005274D01*
X010662Y005246D01*
X010675Y005194D01*
X010695Y005144D01*
X010723Y005099D01*
X010758Y005058D01*
X010799Y005023D01*
X010844Y004995D01*
X010894Y004975D01*
X010946Y004962D01*
X010974Y004960D01*
X010974Y005274D01*
G37*
G36*
X007636Y004412D02*
X007636Y004350D01*
X007698Y004350D01*
X007690Y004370D01*
X007675Y004389D01*
X007656Y004404D01*
X007636Y004412D01*
G37*
G36*
X007840Y004412D02*
X007820Y004404D01*
X007801Y004389D01*
X007786Y004370D01*
X007778Y004350D01*
X007840Y004350D01*
X007840Y004412D01*
G37*
G36*
X007890Y004412D02*
X007890Y004350D01*
X007952Y004350D01*
X007944Y004370D01*
X007929Y004389D01*
X007910Y004404D01*
X007890Y004412D01*
G37*
G36*
X010249Y005386D02*
X010229Y005378D01*
X010210Y005363D01*
X010195Y005344D01*
X010187Y005324D01*
X010249Y005324D01*
X010249Y005386D01*
G37*
G36*
X010299Y005386D02*
X010299Y005324D01*
X010361Y005324D01*
X010353Y005344D01*
X010338Y005363D01*
X010319Y005378D01*
X010299Y005386D01*
G37*
G36*
X010974Y005638D02*
X010946Y005636D01*
X010894Y005623D01*
X010844Y005603D01*
X010799Y005575D01*
X010758Y005540D01*
X010723Y005499D01*
X010695Y005454D01*
X010675Y005404D01*
X010662Y005352D01*
X010660Y005324D01*
X010974Y005324D01*
X010974Y005638D01*
G37*
G36*
X010361Y005274D02*
X010299Y005274D01*
X010299Y005212D01*
X010319Y005220D01*
X010338Y005235D01*
X010353Y005254D01*
X010361Y005274D01*
G37*
G36*
X011699Y005136D02*
X011679Y005128D01*
X011660Y005113D01*
X011645Y005094D01*
X011637Y005074D01*
X011699Y005074D01*
X011699Y005136D01*
G37*
G36*
X011749Y005136D02*
X011749Y005074D01*
X011811Y005074D01*
X011803Y005094D01*
X011788Y005113D01*
X011769Y005128D01*
X011749Y005136D01*
G37*
G36*
X010249Y005274D02*
X010187Y005274D01*
X010195Y005254D01*
X010210Y005235D01*
X010229Y005220D01*
X010249Y005212D01*
X010249Y005274D01*
G37*
G36*
X007586Y004412D02*
X007566Y004404D01*
X007547Y004389D01*
X007532Y004370D01*
X007524Y004350D01*
X007586Y004350D01*
X007586Y004412D01*
G37*
G36*
X003377Y004191D02*
X003370Y004191D01*
X003362Y004186D01*
X003358Y004178D01*
X003358Y004154D01*
X003377Y004154D01*
X003377Y004191D01*
G37*
G36*
X003433Y004191D02*
X003427Y004191D01*
X003427Y004154D01*
X003445Y004154D01*
X003445Y004178D01*
X003441Y004186D01*
X003433Y004191D01*
G37*
G36*
X007332Y004300D02*
X007270Y004300D01*
X007278Y004280D01*
X007293Y004261D01*
X007312Y004246D01*
X007332Y004238D01*
X007332Y004300D01*
G37*
G36*
X003445Y004104D02*
X003427Y004104D01*
X003427Y004068D01*
X003433Y004068D01*
X003441Y004072D01*
X003445Y004080D01*
X003445Y004104D01*
G37*
G36*
X002799Y002980D02*
X002798Y002980D01*
X002796Y002980D01*
X002767Y002977D01*
X002764Y002976D01*
X002761Y002976D01*
X002732Y002968D01*
X002730Y002966D01*
X002727Y002965D01*
X002701Y002951D01*
X002699Y002949D01*
X002696Y002948D01*
X002673Y002929D01*
X002671Y002927D01*
X002671Y002927D01*
X002669Y002925D01*
X002650Y002902D01*
X002649Y002899D01*
X002647Y002897D01*
X002633Y002871D01*
X002632Y002868D01*
X002630Y002866D01*
X002622Y002837D01*
X002622Y002834D01*
X002621Y002831D01*
X002618Y002802D01*
X002618Y002799D01*
X002618Y002799D01*
X002618Y002796D01*
X002621Y002767D01*
X002622Y002764D01*
X002622Y002761D01*
X002630Y002732D01*
X002632Y002730D01*
X002633Y002727D01*
X002647Y002701D01*
X002649Y002699D01*
X002650Y002696D01*
X002669Y002673D01*
X002671Y002671D01*
X002671Y002671D01*
X002673Y002669D01*
X002696Y002650D01*
X002699Y002649D01*
X002701Y002647D01*
X002727Y002633D01*
X002730Y002632D01*
X002732Y002630D01*
X002761Y002622D01*
X002764Y002622D01*
X002767Y002621D01*
X002796Y002618D01*
X002798Y002618D01*
X002799Y002618D01*
X002800Y002618D01*
X002802Y002618D01*
X002831Y002621D01*
X002834Y002622D01*
X002837Y002622D01*
X002866Y002630D01*
X002868Y002632D01*
X002871Y002633D01*
X002897Y002647D01*
X002899Y002649D01*
X002902Y002650D01*
X002925Y002669D01*
X002927Y002671D01*
X002927Y002671D01*
X002929Y002673D01*
X002948Y002696D01*
X002949Y002699D01*
X002951Y002701D01*
X002965Y002727D01*
X002966Y002730D01*
X002968Y002732D01*
X002976Y002761D01*
X002976Y002764D01*
X002977Y002767D01*
X002980Y002796D01*
X002980Y002799D01*
X002980Y002799D01*
X002980Y002802D01*
X002977Y002831D01*
X002976Y002834D01*
X002976Y002837D01*
X002968Y002866D01*
X002966Y002868D01*
X002965Y002871D01*
X002951Y002897D01*
X002949Y002899D01*
X002948Y002902D01*
X002929Y002925D01*
X002927Y002927D01*
X002927Y002927D01*
X002925Y002929D01*
X002902Y002948D01*
X002899Y002949D01*
X002897Y002951D01*
X002871Y002965D01*
X002868Y002966D01*
X002866Y002968D01*
X002837Y002976D01*
X002834Y002976D01*
X002831Y002977D01*
X002802Y002980D01*
X002800Y002980D01*
X002799Y002980D01*
G37*
G36*
X011699Y002980D02*
X011698Y002980D01*
X011696Y002980D01*
X011667Y002977D01*
X011664Y002976D01*
X011661Y002976D01*
X011632Y002968D01*
X011630Y002966D01*
X011627Y002965D01*
X011601Y002951D01*
X011599Y002949D01*
X011596Y002948D01*
X011573Y002929D01*
X011571Y002927D01*
X011571Y002927D01*
X011569Y002925D01*
X011550Y002902D01*
X011549Y002899D01*
X011547Y002897D01*
X011533Y002871D01*
X011532Y002868D01*
X011530Y002866D01*
X011522Y002837D01*
X011522Y002834D01*
X011521Y002831D01*
X011518Y002802D01*
X011518Y002799D01*
X011518Y002799D01*
X011518Y002796D01*
X011521Y002767D01*
X011522Y002764D01*
X011522Y002761D01*
X011530Y002732D01*
X011532Y002730D01*
X011533Y002727D01*
X011547Y002701D01*
X011549Y002699D01*
X011550Y002696D01*
X011569Y002673D01*
X011571Y002671D01*
X011571Y002671D01*
X011573Y002669D01*
X011596Y002650D01*
X011599Y002649D01*
X011601Y002647D01*
X011627Y002633D01*
X011630Y002632D01*
X011632Y002630D01*
X011661Y002622D01*
X011664Y002622D01*
X011667Y002621D01*
X011696Y002618D01*
X011698Y002618D01*
X011699Y002618D01*
X011700Y002618D01*
X011702Y002618D01*
X011731Y002621D01*
X011734Y002622D01*
X011737Y002622D01*
X011766Y002630D01*
X011768Y002632D01*
X011771Y002633D01*
X011797Y002647D01*
X011799Y002649D01*
X011802Y002650D01*
X011825Y002669D01*
X011827Y002671D01*
X011827Y002671D01*
X011829Y002673D01*
X011848Y002696D01*
X011849Y002699D01*
X011851Y002701D01*
X011865Y002727D01*
X011866Y002730D01*
X011868Y002732D01*
X011876Y002761D01*
X011876Y002764D01*
X011877Y002767D01*
X011880Y002796D01*
X011880Y002799D01*
X011880Y002799D01*
X011880Y002802D01*
X011877Y002831D01*
X011876Y002834D01*
X011876Y002837D01*
X011868Y002866D01*
X011866Y002868D01*
X011865Y002871D01*
X011851Y002897D01*
X011849Y002899D01*
X011848Y002902D01*
X011829Y002925D01*
X011827Y002927D01*
X011827Y002927D01*
X011825Y002929D01*
X011802Y002948D01*
X011799Y002949D01*
X011797Y002951D01*
X011771Y002965D01*
X011768Y002966D01*
X011766Y002968D01*
X011737Y002976D01*
X011734Y002976D01*
X011731Y002977D01*
X011702Y002980D01*
X011700Y002980D01*
X011699Y002980D01*
G37*
G36*
X003377Y004104D02*
X003358Y004104D01*
X003358Y004080D01*
X003362Y004072D01*
X003370Y004068D01*
X003377Y004068D01*
X003377Y004104D01*
G37*
G36*
X007952Y004300D02*
X007890Y004300D01*
X007890Y004238D01*
X007910Y004246D01*
X007929Y004261D01*
X007944Y004280D01*
X007952Y004300D01*
G37*
G36*
X007332Y004412D02*
X007312Y004404D01*
X007293Y004389D01*
X007278Y004370D01*
X007270Y004350D01*
X007332Y004350D01*
X007332Y004412D01*
G37*
G36*
X007382Y004412D02*
X007382Y004350D01*
X007444Y004350D01*
X007436Y004370D01*
X007421Y004389D01*
X007402Y004404D01*
X007382Y004412D01*
G37*
G36*
X007840Y004300D02*
X007778Y004300D01*
X007786Y004280D01*
X007801Y004261D01*
X007820Y004246D01*
X007840Y004238D01*
X007840Y004300D01*
G37*
G36*
X007444Y004300D02*
X007382Y004300D01*
X007382Y004238D01*
X007402Y004246D01*
X007421Y004261D01*
X007436Y004280D01*
X007444Y004300D01*
G37*
G36*
X007586Y004300D02*
X007524Y004300D01*
X007532Y004280D01*
X007547Y004261D01*
X007566Y004246D01*
X007586Y004238D01*
X007586Y004300D01*
G37*
G36*
X007698Y004300D02*
X007636Y004300D01*
X007636Y004238D01*
X007656Y004246D01*
X007675Y004261D01*
X007690Y004280D01*
X007698Y004300D01*
G37*
G36*
X011024Y005638D02*
X011024Y005324D01*
X011338Y005324D01*
X011336Y005352D01*
X011323Y005404D01*
X011303Y005454D01*
X011275Y005499D01*
X011240Y005540D01*
X011199Y005575D01*
X011154Y005603D01*
X011104Y005623D01*
X011052Y005636D01*
X011024Y005638D01*
G37*
G36*
X009477Y007090D02*
X009277Y007090D01*
X009265Y007087D01*
X009255Y007081D01*
X009249Y007071D01*
X009246Y007059D01*
X009246Y006859D01*
X009249Y006847D01*
X009255Y006837D01*
X009265Y006831D01*
X009277Y006828D01*
X009477Y006828D01*
X009489Y006831D01*
X009499Y006837D01*
X009505Y006847D01*
X009508Y006859D01*
X009508Y007059D01*
X009505Y007071D01*
X009499Y007081D01*
X009489Y007087D01*
X009477Y007090D01*
G37*
G36*
X007900Y006856D02*
X007900Y006794D01*
X007962Y006794D01*
X007954Y006814D01*
X007939Y006833D01*
X007920Y006848D01*
X007900Y006856D01*
G37*
G36*
X009098Y006934D02*
X009036Y006934D01*
X009044Y006914D01*
X009059Y006895D01*
X009078Y006880D01*
X009098Y006872D01*
X009098Y006934D01*
G37*
G36*
X010674Y007180D02*
X010644Y007177D01*
X010614Y007168D01*
X010587Y007154D01*
X010564Y007134D01*
X010544Y007112D01*
X010530Y007084D01*
X010521Y007054D01*
X010518Y007024D01*
X010521Y006994D01*
X010530Y006964D01*
X010544Y006937D01*
X010564Y006914D01*
X010587Y006894D01*
X010614Y006880D01*
X010644Y006871D01*
X010674Y006868D01*
X010704Y006871D01*
X010734Y006880D01*
X010761Y006894D01*
X010784Y006914D01*
X010804Y006937D01*
X010818Y006964D01*
X010827Y006994D01*
X010830Y007024D01*
X010827Y007054D01*
X010818Y007084D01*
X010804Y007112D01*
X010784Y007134D01*
X010761Y007154D01*
X010734Y007168D01*
X010704Y007177D01*
X010674Y007180D01*
G37*
G36*
X007596Y006856D02*
X007576Y006848D01*
X007557Y006833D01*
X007542Y006814D01*
X007534Y006794D01*
X007596Y006794D01*
X007596Y006856D01*
G37*
G36*
X007962Y006744D02*
X007900Y006744D01*
X007900Y006682D01*
X007920Y006690D01*
X007939Y006705D01*
X007954Y006724D01*
X007962Y006744D01*
G37*
G36*
X007850Y006856D02*
X007830Y006848D01*
X007811Y006833D01*
X007796Y006814D01*
X007788Y006794D01*
X007850Y006794D01*
X007850Y006856D01*
G37*
G36*
X007646Y006856D02*
X007646Y006794D01*
X007708Y006794D01*
X007700Y006814D01*
X007685Y006833D01*
X007666Y006848D01*
X007646Y006856D01*
G37*
G36*
X009210Y006934D02*
X009148Y006934D01*
X009148Y006872D01*
X009168Y006880D01*
X009187Y006895D01*
X009202Y006914D01*
X009210Y006934D01*
G37*
G36*
X008869Y007090D02*
X008835Y007086D01*
X008803Y007073D01*
X008776Y007052D01*
X008755Y007025D01*
X008749Y007009D01*
X008735Y007009D01*
X008729Y007025D01*
X008708Y007052D01*
X008681Y007073D01*
X008649Y007086D01*
X008615Y007090D01*
X008581Y007086D01*
X008549Y007073D01*
X008522Y007052D01*
X008501Y007025D01*
X008488Y006993D01*
X008484Y006959D01*
X008488Y006925D01*
X008501Y006893D01*
X008522Y006866D01*
X008549Y006845D01*
X008581Y006832D01*
X008615Y006828D01*
X008649Y006832D01*
X008681Y006845D01*
X008708Y006866D01*
X008729Y006893D01*
X008735Y006909D01*
X008749Y006909D01*
X008755Y006893D01*
X008776Y006866D01*
X008803Y006845D01*
X008835Y006832D01*
X008869Y006828D01*
X008903Y006832D01*
X008935Y006845D01*
X008962Y006866D01*
X008983Y006893D01*
X008996Y006925D01*
X009000Y006959D01*
X008996Y006993D01*
X008983Y007025D01*
X008962Y007052D01*
X008935Y007073D01*
X008903Y007086D01*
X008869Y007090D01*
G37*
G36*
X009148Y007046D02*
X009148Y006985D01*
X009210Y006985D01*
X009202Y007004D01*
X009187Y007023D01*
X009168Y007038D01*
X009148Y007046D01*
G37*
G36*
X011349Y007137D02*
X011349Y007049D01*
X011437Y007049D01*
X011436Y007054D01*
X011424Y007082D01*
X011406Y007106D01*
X011382Y007124D01*
X011354Y007136D01*
X011349Y007137D01*
G37*
G36*
X011299Y007137D02*
X011294Y007136D01*
X011266Y007124D01*
X011242Y007106D01*
X011224Y007082D01*
X011212Y007054D01*
X011211Y007049D01*
X011299Y007049D01*
X011299Y007137D01*
G37*
G36*
X011437Y006999D02*
X011349Y006999D01*
X011349Y006911D01*
X011354Y006912D01*
X011382Y006924D01*
X011406Y006942D01*
X011424Y006966D01*
X011436Y006994D01*
X011437Y006999D01*
G37*
G36*
X011299Y006999D02*
X011211Y006999D01*
X011212Y006994D01*
X011224Y006966D01*
X011242Y006942D01*
X011266Y006924D01*
X011294Y006912D01*
X011299Y006911D01*
X011299Y006999D01*
G37*
G36*
X009098Y007046D02*
X009078Y007038D01*
X009059Y007023D01*
X009044Y007004D01*
X009036Y006985D01*
X009098Y006985D01*
X009098Y007046D01*
G37*
G36*
X011699Y006980D02*
X011698Y006980D01*
X011696Y006980D01*
X011667Y006977D01*
X011664Y006976D01*
X011661Y006976D01*
X011632Y006968D01*
X011630Y006966D01*
X011627Y006965D01*
X011601Y006951D01*
X011599Y006949D01*
X011596Y006948D01*
X011573Y006929D01*
X011571Y006927D01*
X011571Y006927D01*
X011569Y006925D01*
X011550Y006902D01*
X011549Y006899D01*
X011547Y006897D01*
X011533Y006871D01*
X011532Y006868D01*
X011530Y006866D01*
X011522Y006837D01*
X011522Y006834D01*
X011521Y006831D01*
X011518Y006802D01*
X011518Y006799D01*
X011518Y006799D01*
X011518Y006796D01*
X011521Y006767D01*
X011522Y006764D01*
X011522Y006761D01*
X011530Y006732D01*
X011532Y006731D01*
X011533Y006727D01*
X011547Y006701D01*
X011549Y006699D01*
X011550Y006696D01*
X011569Y006673D01*
X011571Y006671D01*
X011571Y006671D01*
X011573Y006669D01*
X011596Y006650D01*
X011599Y006649D01*
X011601Y006647D01*
X011627Y006633D01*
X011630Y006632D01*
X011632Y006630D01*
X011661Y006622D01*
X011664Y006622D01*
X011667Y006621D01*
X011696Y006618D01*
X011698Y006618D01*
X011699Y006618D01*
X011700Y006618D01*
X011702Y006618D01*
X011731Y006621D01*
X011734Y006622D01*
X011737Y006622D01*
X011766Y006630D01*
X011768Y006632D01*
X011771Y006633D01*
X011797Y006647D01*
X011799Y006649D01*
X011802Y006650D01*
X011825Y006669D01*
X011827Y006671D01*
X011827Y006671D01*
X011829Y006673D01*
X011848Y006696D01*
X011849Y006699D01*
X011851Y006701D01*
X011865Y006727D01*
X011866Y006731D01*
X011868Y006732D01*
X011876Y006761D01*
X011876Y006764D01*
X011877Y006767D01*
X011880Y006796D01*
X011880Y006799D01*
X011880Y006799D01*
X011880Y006802D01*
X011877Y006831D01*
X011876Y006834D01*
X011876Y006837D01*
X011868Y006866D01*
X011866Y006868D01*
X011865Y006871D01*
X011851Y006897D01*
X011849Y006899D01*
X011848Y006902D01*
X011829Y006925D01*
X011827Y006927D01*
X011827Y006927D01*
X011825Y006929D01*
X011802Y006948D01*
X011799Y006949D01*
X011797Y006951D01*
X011771Y006965D01*
X011768Y006966D01*
X011766Y006968D01*
X011737Y006976D01*
X011734Y006976D01*
X011731Y006977D01*
X011702Y006980D01*
X011700Y006980D01*
X011699Y006980D01*
G37*
G36*
X009393Y006084D02*
X009305Y006084D01*
X009305Y005996D01*
X009310Y005997D01*
X009338Y006009D01*
X009362Y006027D01*
X009380Y006051D01*
X009392Y006079D01*
X009393Y006084D01*
G37*
G36*
X009255Y006084D02*
X009167Y006084D01*
X009168Y006079D01*
X009180Y006051D01*
X009198Y006027D01*
X009222Y006009D01*
X009250Y005997D01*
X009255Y005996D01*
X009255Y006084D01*
G37*
G36*
X007511Y006484D02*
X007493Y006484D01*
X007493Y006460D01*
X007497Y006452D01*
X007505Y006448D01*
X007511Y006448D01*
X007511Y006484D01*
G37*
G36*
X009255Y006223D02*
X009250Y006221D01*
X009222Y006209D01*
X009198Y006191D01*
X009180Y006167D01*
X009168Y006139D01*
X009167Y006134D01*
X009255Y006134D01*
X009255Y006223D01*
G37*
G36*
X009305Y006223D02*
X009305Y006134D01*
X009393Y006134D01*
X009392Y006139D01*
X009380Y006167D01*
X009362Y006191D01*
X009338Y006209D01*
X009310Y006221D01*
X009305Y006223D01*
G37*
G36*
X007259Y007130D02*
X003929Y007130D01*
X003908Y007127D01*
X003889Y007119D01*
X003872Y007106D01*
X002992Y006226D01*
X002979Y006209D01*
X002971Y006190D01*
X002968Y006169D01*
X002968Y005347D01*
X002956Y005338D01*
X002935Y005311D01*
X002922Y005279D01*
X002918Y005245D01*
X002922Y005211D01*
X002935Y005179D01*
X002956Y005152D01*
X002983Y005131D01*
X002993Y005128D01*
X002993Y004889D01*
X002997Y004868D01*
X003009Y004849D01*
X003523Y004336D01*
X003523Y004225D01*
X003508Y004215D01*
X003497Y004198D01*
X003493Y004178D01*
X003493Y004080D01*
X003497Y004060D01*
X003508Y004043D01*
X003523Y004033D01*
X003523Y003299D01*
X003523Y003039D01*
X003510Y003035D01*
X003499Y003040D01*
X003499Y003040D01*
X003488Y003035D01*
X003487Y003035D01*
X003483Y003024D01*
X003483Y002924D01*
X003499Y002924D01*
X003499Y002899D01*
X003523Y002899D01*
X003523Y002774D01*
X003524Y002769D01*
X003524Y002764D01*
X003525Y002764D01*
X003527Y002753D01*
X003539Y002734D01*
X003558Y002722D01*
X003579Y002718D01*
X003590Y002720D01*
X003603Y002710D01*
X003603Y002709D01*
X003607Y002688D01*
X003619Y002669D01*
X003639Y002649D01*
X003658Y002637D01*
X003679Y002633D01*
X003949Y002633D01*
X003970Y002637D01*
X003989Y002649D01*
X004019Y002679D01*
X004031Y002698D01*
X004033Y002711D01*
X004036Y002719D01*
X004048Y002720D01*
X004059Y002718D01*
X004080Y002722D01*
X004089Y002728D01*
X004099Y002734D01*
X004109Y002728D01*
X004118Y002722D01*
X004139Y002718D01*
X004160Y002722D01*
X004179Y002734D01*
X004179Y002734D01*
X004198Y002722D01*
X004219Y002718D01*
X004240Y002722D01*
X004249Y002728D01*
X004259Y002734D01*
X004269Y002728D01*
X004278Y002722D01*
X004299Y002718D01*
X004320Y002722D01*
X004339Y002734D01*
X004339Y002734D01*
X004358Y002722D01*
X004379Y002718D01*
X004400Y002722D01*
X004419Y002734D01*
X004419Y002734D01*
X004438Y002722D01*
X004459Y002718D01*
X004480Y002722D01*
X004499Y002734D01*
X004499Y002734D01*
X004518Y002722D01*
X004539Y002718D01*
X004560Y002722D01*
X004569Y002728D01*
X004579Y002734D01*
X004589Y002728D01*
X004598Y002722D01*
X004619Y002718D01*
X004640Y002722D01*
X004659Y002734D01*
X004659Y002734D01*
X004678Y002722D01*
X004699Y002718D01*
X004720Y002722D01*
X004739Y002734D01*
X004751Y002753D01*
X004753Y002764D01*
X004754Y002764D01*
X004754Y002769D01*
X004755Y002774D01*
X004755Y002899D01*
X004803Y002899D01*
X004803Y002774D01*
X004804Y002769D01*
X004804Y002764D01*
X004805Y002764D01*
X004807Y002753D01*
X004819Y002734D01*
X004838Y002722D01*
X004859Y002718D01*
X004880Y002722D01*
X004889Y002728D01*
X004899Y002734D01*
X004909Y002728D01*
X004918Y002722D01*
X004939Y002718D01*
X004960Y002722D01*
X004979Y002734D01*
X004979Y002734D01*
X004998Y002722D01*
X005019Y002718D01*
X005040Y002722D01*
X005059Y002734D01*
X005059Y002734D01*
X005078Y002722D01*
X005099Y002718D01*
X005120Y002722D01*
X005139Y002734D01*
X005139Y002734D01*
X005158Y002722D01*
X005179Y002718D01*
X005200Y002722D01*
X005209Y002728D01*
X005219Y002734D01*
X005229Y002728D01*
X005238Y002722D01*
X005259Y002718D01*
X005280Y002722D01*
X005299Y002734D01*
X005299Y002734D01*
X005318Y002722D01*
X005339Y002718D01*
X005360Y002722D01*
X005369Y002728D01*
X005379Y002734D01*
X005389Y002728D01*
X005398Y002722D01*
X005419Y002718D01*
X005440Y002722D01*
X005459Y002734D01*
X005459Y002734D01*
X005478Y002722D01*
X005499Y002718D01*
X005520Y002722D01*
X005529Y002728D01*
X005539Y002734D01*
X005549Y002728D01*
X005558Y002722D01*
X005579Y002718D01*
X005600Y002722D01*
X005619Y002734D01*
X005619Y002734D01*
X005638Y002722D01*
X005659Y002718D01*
X005680Y002722D01*
X005699Y002734D01*
X005711Y002753D01*
X005713Y002764D01*
X005715Y002764D01*
X005715Y002769D01*
X005715Y002774D01*
X005715Y002899D01*
X005739Y002899D01*
X005739Y002924D01*
X005755Y002924D01*
X005755Y003024D01*
X005750Y003035D01*
X005739Y003040D01*
X005736Y003039D01*
X005721Y003046D01*
X005720Y003051D01*
X006729Y004059D01*
X006741Y004078D01*
X006745Y004099D01*
X006745Y004228D01*
X006758Y004231D01*
X006783Y004211D01*
X006815Y004198D01*
X006849Y004194D01*
X006883Y004198D01*
X006915Y004211D01*
X006942Y004232D01*
X006963Y004259D01*
X006969Y004275D01*
X006983Y004275D01*
X006989Y004259D01*
X007010Y004232D01*
X007037Y004211D01*
X007069Y004198D01*
X007103Y004194D01*
X007137Y004198D01*
X007169Y004211D01*
X007196Y004232D01*
X007217Y004259D01*
X007230Y004291D01*
X007234Y004325D01*
X007230Y004359D01*
X007217Y004391D01*
X007196Y004418D01*
X007169Y004439D01*
X007153Y004445D01*
X007153Y004459D01*
X007169Y004465D01*
X007196Y004486D01*
X007217Y004513D01*
X007223Y004529D01*
X007237Y004529D01*
X007243Y004513D01*
X007264Y004486D01*
X007291Y004465D01*
X007323Y004452D01*
X007357Y004448D01*
X007391Y004452D01*
X007423Y004465D01*
X007450Y004486D01*
X007471Y004513D01*
X007477Y004529D01*
X007491Y004529D01*
X007497Y004513D01*
X007518Y004486D01*
X007545Y004465D01*
X007577Y004452D01*
X007611Y004448D01*
X007645Y004452D01*
X007677Y004465D01*
X007704Y004486D01*
X007725Y004513D01*
X007731Y004529D01*
X007745Y004529D01*
X007751Y004513D01*
X007772Y004486D01*
X007799Y004465D01*
X007831Y004452D01*
X007865Y004448D01*
X007899Y004452D01*
X007931Y004465D01*
X007958Y004486D01*
X007979Y004513D01*
X007992Y004545D01*
X007996Y004579D01*
X007992Y004613D01*
X007979Y004645D01*
X007958Y004672D01*
X007931Y004692D01*
X007931Y005128D01*
X007941Y005131D01*
X007968Y005152D01*
X007989Y005179D01*
X008002Y005211D01*
X008006Y005245D01*
X008002Y005279D01*
X007989Y005311D01*
X007968Y005338D01*
X007941Y005359D01*
X007912Y005370D01*
X007915Y005383D01*
X009736Y005383D01*
X010109Y005009D01*
X010128Y004997D01*
X010149Y004993D01*
X010157Y004993D01*
X010160Y004983D01*
X010181Y004956D01*
X010208Y004935D01*
X010240Y004922D01*
X010274Y004918D01*
X010308Y004922D01*
X010340Y004935D01*
X010367Y004956D01*
X010388Y004983D01*
X010401Y005015D01*
X010405Y005049D01*
X010401Y005083D01*
X010388Y005115D01*
X010367Y005142D01*
X010340Y005163D01*
X010308Y005176D01*
X010274Y005180D01*
X010240Y005176D01*
X010208Y005163D01*
X010181Y005142D01*
X010167Y005124D01*
X010155Y005123D01*
X009799Y005479D01*
X009796Y005480D01*
X009800Y005493D01*
X010157Y005493D01*
X010160Y005483D01*
X010181Y005456D01*
X010208Y005435D01*
X010240Y005422D01*
X010274Y005418D01*
X010308Y005422D01*
X010340Y005435D01*
X010367Y005456D01*
X010388Y005483D01*
X010401Y005515D01*
X010405Y005549D01*
X010401Y005583D01*
X010388Y005615D01*
X010367Y005642D01*
X010340Y005663D01*
X010308Y005676D01*
X010274Y005680D01*
X010240Y005676D01*
X010208Y005663D01*
X010181Y005642D01*
X010160Y005615D01*
X010157Y005605D01*
X009942Y005605D01*
X009937Y005618D01*
X010272Y005953D01*
X011636Y005953D01*
X011668Y005921D01*
X011668Y005666D01*
X011658Y005663D01*
X011631Y005642D01*
X011610Y005615D01*
X011597Y005583D01*
X011593Y005549D01*
X011597Y005515D01*
X011610Y005483D01*
X011631Y005456D01*
X011658Y005435D01*
X011690Y005422D01*
X011724Y005418D01*
X011758Y005422D01*
X011790Y005435D01*
X011817Y005456D01*
X011838Y005483D01*
X011851Y005515D01*
X011855Y005549D01*
X011851Y005583D01*
X011838Y005615D01*
X011817Y005642D01*
X011790Y005663D01*
X011780Y005666D01*
X011780Y005944D01*
X011776Y005965D01*
X011764Y005984D01*
X011699Y006049D01*
X011680Y006061D01*
X011659Y006065D01*
X010262Y006065D01*
X010257Y006078D01*
X010611Y006432D01*
X010614Y006430D01*
X010644Y006421D01*
X010674Y006418D01*
X010704Y006421D01*
X010734Y006430D01*
X010761Y006444D01*
X010784Y006464D01*
X010804Y006487D01*
X010818Y006514D01*
X010819Y006518D01*
X011179Y006518D01*
X011180Y006514D01*
X011194Y006487D01*
X011214Y006464D01*
X011237Y006444D01*
X011264Y006430D01*
X011294Y006421D01*
X011324Y006418D01*
X011354Y006421D01*
X011384Y006430D01*
X011411Y006444D01*
X011434Y006464D01*
X011454Y006487D01*
X011468Y006514D01*
X011477Y006544D01*
X011480Y006574D01*
X011477Y006604D01*
X011468Y006634D01*
X011454Y006661D01*
X011434Y006684D01*
X011411Y006704D01*
X011384Y006718D01*
X011354Y006727D01*
X011324Y006731D01*
X011294Y006727D01*
X011264Y006718D01*
X011237Y006704D01*
X011214Y006684D01*
X011194Y006661D01*
X011180Y006634D01*
X011179Y006630D01*
X010819Y006630D01*
X010818Y006634D01*
X010804Y006661D01*
X010784Y006684D01*
X010761Y006704D01*
X010734Y006718D01*
X010704Y006727D01*
X010674Y006731D01*
X010644Y006727D01*
X010614Y006718D01*
X010587Y006704D01*
X010564Y006684D01*
X010544Y006661D01*
X010530Y006634D01*
X010521Y006604D01*
X010518Y006574D01*
X010521Y006544D01*
X010530Y006514D01*
X010532Y006511D01*
X009836Y005815D01*
X006609Y005815D01*
X006588Y005811D01*
X006569Y005799D01*
X006139Y005368D01*
X006131Y005372D01*
X006097Y005376D01*
X006063Y005372D01*
X006031Y005359D01*
X006004Y005338D01*
X005983Y005311D01*
X005970Y005279D01*
X005966Y005245D01*
X005970Y005211D01*
X005983Y005179D01*
X006004Y005152D01*
X006031Y005131D01*
X006063Y005118D01*
X006097Y005114D01*
X006131Y005118D01*
X006163Y005131D01*
X006190Y005152D01*
X006211Y005179D01*
X006217Y005195D01*
X006231Y005195D01*
X006237Y005179D01*
X006258Y005152D01*
X006285Y005131D01*
X006317Y005118D01*
X006351Y005114D01*
X006385Y005118D01*
X006417Y005131D01*
X006444Y005152D01*
X006465Y005179D01*
X006471Y005195D01*
X006485Y005195D01*
X006491Y005179D01*
X006512Y005152D01*
X006539Y005131D01*
X006571Y005118D01*
X006605Y005114D01*
X006639Y005118D01*
X006671Y005131D01*
X006698Y005152D01*
X006719Y005179D01*
X006725Y005195D01*
X006739Y005195D01*
X006745Y005179D01*
X006766Y005152D01*
X006793Y005131D01*
X006825Y005118D01*
X006859Y005114D01*
X006893Y005118D01*
X006925Y005131D01*
X006952Y005152D01*
X006973Y005179D01*
X006979Y005195D01*
X006993Y005195D01*
X006999Y005179D01*
X007020Y005152D01*
X007047Y005131D01*
X007057Y005128D01*
X007057Y004701D01*
X007037Y004693D01*
X007010Y004672D01*
X006992Y004648D01*
X006980Y004653D01*
X006980Y004679D01*
X006977Y004691D01*
X006971Y004701D01*
X006961Y004707D01*
X006949Y004710D01*
X006749Y004710D01*
X006737Y004707D01*
X006727Y004701D01*
X006721Y004691D01*
X006718Y004679D01*
X006718Y004660D01*
X006302Y004660D01*
X005920Y005042D01*
X005920Y006186D01*
X006082Y006348D01*
X006181Y006348D01*
X006189Y006338D01*
X006188Y006332D01*
X006188Y006236D01*
X006191Y006220D01*
X006201Y006206D01*
X006215Y006196D01*
X006231Y006193D01*
X006361Y006193D01*
X006484Y006069D01*
X006503Y006057D01*
X006524Y006053D01*
X008373Y006053D01*
X008374Y006049D01*
X008388Y006022D01*
X008408Y005999D01*
X008431Y005979D01*
X008458Y005965D01*
X008488Y005956D01*
X008518Y005953D01*
X008548Y005956D01*
X008578Y005965D01*
X008605Y005979D01*
X008628Y005999D01*
X008648Y006022D01*
X008662Y006049D01*
X008671Y006079D01*
X008674Y006109D01*
X008671Y006139D01*
X008662Y006169D01*
X008648Y006196D01*
X008628Y006219D01*
X008605Y006239D01*
X008578Y006253D01*
X008548Y006262D01*
X008518Y006265D01*
X008488Y006262D01*
X008458Y006253D01*
X008431Y006239D01*
X008408Y006219D01*
X008388Y006196D01*
X008374Y006169D01*
X008373Y006165D01*
X006547Y006165D01*
X006430Y006282D01*
X006430Y006332D01*
X006429Y006338D01*
X006437Y006348D01*
X007361Y006348D01*
X007382Y006351D01*
X007402Y006359D01*
X007419Y006372D01*
X007431Y006389D01*
X007439Y006408D01*
X007442Y006429D01*
X007442Y006446D01*
X007445Y006460D01*
X007445Y006558D01*
X007442Y006572D01*
X007442Y006663D01*
X007460Y006676D01*
X007481Y006703D01*
X007494Y006735D01*
X007498Y006769D01*
X007494Y006803D01*
X007481Y006835D01*
X007460Y006862D01*
X007442Y006875D01*
X007442Y006946D01*
X007439Y006967D01*
X007431Y006987D01*
X007419Y007004D01*
X007316Y007106D01*
X007299Y007119D01*
X007280Y007127D01*
X007259Y007130D01*
G37*
G36*
X007580Y006484D02*
X007561Y006484D01*
X007561Y006448D01*
X007568Y006448D01*
X007576Y006452D01*
X007580Y006460D01*
X007580Y006484D01*
G37*
G36*
X007596Y006744D02*
X007534Y006744D01*
X007542Y006724D01*
X007557Y006705D01*
X007576Y006690D01*
X007596Y006682D01*
X007596Y006744D01*
G37*
G36*
X007708Y006744D02*
X007646Y006744D01*
X007646Y006682D01*
X007666Y006690D01*
X007685Y006705D01*
X007700Y006724D01*
X007708Y006744D01*
G37*
G36*
X007850Y006744D02*
X007788Y006744D01*
X007796Y006724D01*
X007811Y006705D01*
X007830Y006690D01*
X007850Y006682D01*
X007850Y006744D01*
G37*
G36*
X007511Y006570D02*
X007505Y006570D01*
X007497Y006566D01*
X007493Y006558D01*
X007493Y006534D01*
X007511Y006534D01*
X007511Y006570D01*
G37*
G36*
X007568Y006570D02*
X007561Y006570D01*
X007561Y006534D01*
X007580Y006534D01*
X007580Y006558D01*
X007576Y006566D01*
X007568Y006570D01*
G37*
%LN3dp-glcd-3*%
%LPD*%
G36*
X007281Y006913D02*
X007281Y006867D01*
X007274Y006862D01*
X007253Y006835D01*
X007240Y006803D01*
X007236Y006769D01*
X007240Y006735D01*
X007253Y006703D01*
X007274Y006676D01*
X007281Y006671D01*
X007281Y006572D01*
X007278Y006558D01*
X007278Y006510D01*
X006959Y006510D01*
X006959Y006576D01*
X006960Y006581D01*
X006960Y006638D01*
X006956Y006657D01*
X006946Y006672D01*
X006952Y006676D01*
X006973Y006703D01*
X006986Y006735D01*
X006990Y006769D01*
X006986Y006803D01*
X006973Y006835D01*
X006952Y006862D01*
X006925Y006883D01*
X006893Y006896D01*
X006859Y006900D01*
X006825Y006896D01*
X006793Y006883D01*
X006766Y006862D01*
X006745Y006835D01*
X006739Y006819D01*
X006725Y006819D01*
X006719Y006835D01*
X006698Y006862D01*
X006671Y006883D01*
X006639Y006896D01*
X006605Y006900D01*
X006571Y006896D01*
X006539Y006883D01*
X006512Y006862D01*
X006491Y006835D01*
X006485Y006819D01*
X006471Y006819D01*
X006465Y006835D01*
X006444Y006862D01*
X006417Y006883D01*
X006385Y006896D01*
X006351Y006900D01*
X006317Y006896D01*
X006285Y006883D01*
X006258Y006862D01*
X006237Y006835D01*
X006231Y006819D01*
X006217Y006819D01*
X006211Y006835D01*
X006190Y006862D01*
X006163Y006883D01*
X006131Y006896D01*
X006097Y006900D01*
X006063Y006896D01*
X006031Y006883D01*
X006004Y006862D01*
X005983Y006835D01*
X005977Y006819D01*
X005963Y006819D01*
X005957Y006835D01*
X005936Y006862D01*
X005909Y006883D01*
X005877Y006896D01*
X005843Y006900D01*
X005809Y006896D01*
X005777Y006883D01*
X005750Y006862D01*
X005729Y006835D01*
X005723Y006819D01*
X005709Y006819D01*
X005703Y006835D01*
X005682Y006862D01*
X005655Y006883D01*
X005623Y006896D01*
X005589Y006900D01*
X005555Y006896D01*
X005523Y006883D01*
X005496Y006862D01*
X005475Y006835D01*
X005469Y006819D01*
X005455Y006819D01*
X005449Y006835D01*
X005428Y006862D01*
X005401Y006883D01*
X005369Y006896D01*
X005335Y006900D01*
X005301Y006896D01*
X005269Y006883D01*
X005242Y006862D01*
X005221Y006835D01*
X005215Y006819D01*
X005201Y006819D01*
X005195Y006835D01*
X005174Y006862D01*
X005147Y006883D01*
X005115Y006896D01*
X005081Y006900D01*
X005047Y006896D01*
X005015Y006883D01*
X004988Y006862D01*
X004967Y006835D01*
X004961Y006819D01*
X004947Y006819D01*
X004941Y006835D01*
X004920Y006862D01*
X004893Y006883D01*
X004861Y006896D01*
X004827Y006900D01*
X004793Y006896D01*
X004761Y006883D01*
X004734Y006862D01*
X004713Y006835D01*
X004707Y006819D01*
X004693Y006819D01*
X004687Y006835D01*
X004666Y006862D01*
X004639Y006883D01*
X004607Y006896D01*
X004573Y006900D01*
X004539Y006896D01*
X004507Y006883D01*
X004480Y006862D01*
X004459Y006835D01*
X004453Y006819D01*
X004439Y006819D01*
X004433Y006835D01*
X004412Y006862D01*
X004385Y006883D01*
X004353Y006896D01*
X004319Y006900D01*
X004285Y006896D01*
X004253Y006883D01*
X004226Y006862D01*
X004205Y006835D01*
X004199Y006819D01*
X004185Y006819D01*
X004179Y006835D01*
X004158Y006862D01*
X004131Y006883D01*
X004099Y006896D01*
X004065Y006900D01*
X004031Y006896D01*
X003999Y006883D01*
X003972Y006862D01*
X003951Y006835D01*
X003938Y006803D01*
X003934Y006769D01*
X003938Y006735D01*
X003951Y006703D01*
X003972Y006676D01*
X003999Y006655D01*
X004015Y006649D01*
X004025Y006633D01*
X004703Y005956D01*
X004703Y005304D01*
X004690Y005302D01*
X004687Y005311D01*
X004666Y005338D01*
X004639Y005359D01*
X004607Y005372D01*
X004573Y005376D01*
X004539Y005372D01*
X004507Y005359D01*
X004480Y005338D01*
X004459Y005311D01*
X004453Y005295D01*
X004439Y005295D01*
X004433Y005311D01*
X004412Y005338D01*
X004385Y005359D01*
X004353Y005372D01*
X004319Y005376D01*
X004285Y005372D01*
X004253Y005359D01*
X004226Y005338D01*
X004205Y005311D01*
X004199Y005295D01*
X004185Y005295D01*
X004179Y005311D01*
X004158Y005338D01*
X004131Y005359D01*
X004099Y005372D01*
X004065Y005376D01*
X004031Y005372D01*
X003999Y005359D01*
X003972Y005338D01*
X003951Y005311D01*
X003945Y005295D01*
X003931Y005295D01*
X003925Y005311D01*
X003904Y005338D01*
X003877Y005359D01*
X003845Y005372D01*
X003811Y005376D01*
X003777Y005372D01*
X003745Y005359D01*
X003718Y005338D01*
X003697Y005311D01*
X003691Y005295D01*
X003677Y005295D01*
X003671Y005311D01*
X003650Y005338D01*
X003623Y005359D01*
X003591Y005372D01*
X003557Y005376D01*
X003523Y005372D01*
X003491Y005359D01*
X003464Y005338D01*
X003443Y005311D01*
X003430Y005279D01*
X003426Y005245D01*
X003430Y005211D01*
X003443Y005179D01*
X003464Y005152D01*
X003491Y005131D01*
X003523Y005118D01*
X003557Y005114D01*
X003591Y005118D01*
X003623Y005131D01*
X003650Y005152D01*
X003671Y005179D01*
X003677Y005195D01*
X003691Y005195D01*
X003697Y005179D01*
X003718Y005152D01*
X003745Y005131D01*
X003755Y005128D01*
X003755Y004824D01*
X003699Y004769D01*
X003687Y004750D01*
X003683Y004729D01*
X003683Y003291D01*
X003671Y003286D01*
X003635Y003322D01*
X003635Y004037D01*
X003645Y004043D01*
X003656Y004060D01*
X003660Y004080D01*
X003660Y004178D01*
X003656Y004198D01*
X003645Y004215D01*
X003635Y004221D01*
X003635Y004359D01*
X003631Y004380D01*
X003619Y004399D01*
X003105Y004912D01*
X003105Y005128D01*
X003115Y005131D01*
X003142Y005152D01*
X003163Y005179D01*
X003176Y005211D01*
X003180Y005245D01*
X003176Y005279D01*
X003163Y005311D01*
X003142Y005338D01*
X003130Y005347D01*
X003130Y006136D01*
X003962Y006968D01*
X007226Y006968D01*
X007281Y006913D01*
G37*
G36*
X005638Y004947D02*
X005649Y004929D01*
X006204Y004374D01*
X006223Y004362D01*
X006244Y004358D01*
X006270Y004358D01*
X006272Y004356D01*
X006289Y004353D01*
X006389Y004353D01*
X006436Y004354D01*
X006447Y004341D01*
X006446Y004337D01*
X006446Y004301D01*
X006449Y004285D01*
X006458Y004271D01*
X006472Y004261D01*
X006483Y004259D01*
X006483Y004172D01*
X006458Y004147D01*
X006446Y004155D01*
X006427Y004159D01*
X006408Y004155D01*
X006391Y004144D01*
X006351Y004104D01*
X006264Y004017D01*
X006224Y003977D01*
X006213Y003960D01*
X006209Y003941D01*
X006213Y003922D01*
X006224Y003906D01*
X006245Y003885D01*
X005526Y003165D01*
X005209Y003165D01*
X005188Y003161D01*
X005169Y003149D01*
X005139Y003119D01*
X005127Y003100D01*
X005125Y003087D01*
X005122Y003079D01*
X005110Y003078D01*
X005099Y003080D01*
X005078Y003076D01*
X005059Y003064D01*
X005059Y003064D01*
X005040Y003076D01*
X005019Y003080D01*
X004998Y003076D01*
X004979Y003064D01*
X004979Y003064D01*
X004960Y003076D01*
X004939Y003080D01*
X004918Y003076D01*
X004909Y003070D01*
X004899Y003064D01*
X004889Y003070D01*
X004880Y003076D01*
X004859Y003080D01*
X004838Y003076D01*
X004819Y003064D01*
X004807Y003045D01*
X004805Y003034D01*
X004792Y003033D01*
X004790Y003035D01*
X004779Y003040D01*
X004768Y003035D01*
X004755Y003039D01*
X004755Y003116D01*
X005029Y003389D01*
X005041Y003408D01*
X005045Y003429D01*
X005045Y004056D01*
X005609Y004619D01*
X005621Y004638D01*
X005625Y004659D01*
X005625Y004939D01*
X005637Y004947D01*
X005638Y004947D01*
G37*
%LN3dp-glcd-4*%
%LPC*%
G36*
X003328Y005332D02*
X003328Y005270D01*
X003390Y005270D01*
X003382Y005290D01*
X003367Y005309D01*
X003348Y005324D01*
X003328Y005332D01*
G37*
G36*
X003278Y005220D02*
X003216Y005220D01*
X003224Y005200D01*
X003239Y005181D01*
X003258Y005166D01*
X003278Y005158D01*
X003278Y005220D01*
G37*
G36*
X003390Y005220D02*
X003328Y005220D01*
X003328Y005158D01*
X003348Y005166D01*
X003367Y005181D01*
X003382Y005200D01*
X003390Y005220D01*
G37*
G36*
X003278Y005332D02*
X003258Y005324D01*
X003239Y005309D01*
X003224Y005290D01*
X003216Y005270D01*
X003278Y005270D01*
X003278Y005332D01*
G37*
%LN3dp-glcd-5*%
%LPD*%
G54D10*
X006309Y006284D03*
X006309Y006574D03*
G54D11*
X003402Y004129D03*
X003577Y004129D03*
X007537Y006509D03*
X007361Y006509D03*
G54D12*
X003499Y002899D03*
X003579Y002899D03*
X003659Y002899D03*
X003739Y002899D03*
X004059Y002899D03*
X003979Y002899D03*
X003899Y002899D03*
X003819Y002899D03*
X004459Y002899D03*
X004539Y002899D03*
X004619Y002899D03*
X004699Y002899D03*
X004379Y002899D03*
X004299Y002899D03*
X004219Y002899D03*
X004139Y002899D03*
X005419Y002899D03*
X005499Y002899D03*
X005579Y002899D03*
X005659Y002899D03*
X005739Y002899D03*
X005099Y002899D03*
X005179Y002899D03*
X005259Y002899D03*
X005339Y002899D03*
X005019Y002899D03*
X004939Y002899D03*
X004859Y002899D03*
X004779Y002899D03*
G54D13*
X006315Y003925D03*
X006443Y004053D03*
G54D14*
X006339Y004414D03*
X006339Y004224D03*
X006539Y004319D03*
G54D15*
X006609Y006429D03*
X006609Y006609D03*
X006859Y006429D03*
X006859Y006609D03*
G54D16*
X003979Y002719D02*
X003979Y002899D01*
X003949Y002689D02*
X003979Y002719D01*
X003679Y002689D02*
X003949Y002689D01*
X003659Y002709D02*
X003679Y002689D01*
X003659Y002709D02*
X003659Y002899D01*
X006315Y003875D02*
X006315Y003925D01*
X005549Y003109D02*
X006315Y003875D01*
X005419Y003109D02*
X005549Y003109D01*
X006244Y004414D02*
X006339Y004414D01*
X005689Y004969D02*
X006244Y004414D01*
X005689Y004969D02*
X005689Y006299D01*
X005209Y003109D02*
X005419Y003109D01*
X005419Y002899D02*
X005419Y003109D01*
X005339Y002899D02*
X005339Y003109D01*
X005259Y002899D02*
X005259Y003109D01*
X005179Y002899D02*
X005179Y003079D01*
X005209Y003109D01*
X005499Y002899D02*
X005499Y003109D01*
X006539Y004149D02*
X006539Y004319D01*
X006443Y004053D02*
X006539Y004149D01*
X004779Y003089D02*
X004789Y003099D01*
X004779Y002899D02*
X004779Y003089D01*
X004989Y003429D02*
X004989Y004079D01*
X004699Y003139D02*
X004989Y003429D01*
X004699Y002899D02*
X004699Y003139D01*
X004879Y003459D02*
X004879Y004139D01*
X004619Y003199D02*
X004879Y003459D01*
X004619Y002899D02*
X004619Y003199D01*
X004769Y003499D02*
X004769Y004199D01*
X004539Y003269D02*
X004769Y003499D01*
X004539Y002899D02*
X004539Y003269D01*
X004659Y003539D02*
X004659Y004259D01*
X004459Y003339D02*
X004659Y003539D01*
X004459Y002899D02*
X004459Y003339D01*
X004549Y003579D02*
X004549Y004309D01*
X004379Y003409D02*
X004549Y003579D01*
X004379Y002899D02*
X004379Y003409D01*
X004439Y003619D02*
X004439Y004359D01*
X004299Y003479D02*
X004439Y003619D01*
X004299Y002899D02*
X004299Y003479D01*
X004329Y003649D02*
X004329Y004409D01*
X004219Y003539D02*
X004329Y003649D01*
X004219Y002899D02*
X004219Y003539D01*
X004219Y003679D02*
X004219Y004469D01*
X004139Y003599D02*
X004219Y003679D01*
X004139Y002899D02*
X004139Y003599D01*
X004989Y004079D02*
X005569Y004659D01*
X004879Y004139D02*
X005449Y004709D01*
X004769Y004199D02*
X005335Y004765D01*
X004659Y004259D02*
X005219Y004819D01*
X004549Y004309D02*
X005109Y004869D01*
X004329Y004409D02*
X004879Y004959D01*
X004439Y004359D02*
X004989Y004909D01*
X004219Y004469D02*
X004759Y005009D01*
X004099Y004529D02*
X004573Y005003D01*
X004099Y003699D02*
X004099Y004529D01*
X004059Y003659D02*
X004099Y003699D01*
X003979Y004579D02*
X004319Y004919D01*
X003979Y003769D02*
X003979Y004579D01*
X003959Y003749D02*
X003979Y003769D01*
X003859Y004659D02*
X004065Y004865D01*
X006524Y006109D02*
X008518Y006109D01*
X006350Y006284D02*
X006524Y006109D01*
X005659Y002899D02*
X005659Y003069D01*
X005689Y006299D02*
X006097Y006707D01*
X005569Y004659D02*
X005569Y006399D01*
X005449Y004709D02*
X005449Y006509D01*
X005219Y004819D02*
X005219Y006519D01*
X005109Y004869D02*
X005109Y006379D01*
X004989Y004909D02*
X004989Y006249D01*
X011659Y006009D02*
X011724Y005944D01*
X011724Y005549D02*
X011724Y005944D01*
X010149Y005049D02*
X010274Y005049D01*
X009759Y005439D02*
X010149Y005049D01*
X004059Y002899D02*
X004059Y003659D01*
X003659Y002899D02*
X003659Y003219D01*
X003579Y003299D02*
X003659Y003219D01*
X003579Y002899D02*
X003579Y003299D01*
X003899Y002899D02*
X003899Y003109D01*
X006859Y005275D02*
X006859Y005379D01*
X006919Y005439D01*
X009759Y005439D01*
X003899Y003109D02*
X003959Y003169D01*
X003959Y003749D01*
X003819Y002899D02*
X003819Y003189D01*
X003859Y003229D01*
X003859Y004659D01*
X003739Y002899D02*
X003739Y004729D01*
X003811Y004801D01*
X005569Y006399D02*
X005843Y006673D01*
X005449Y006509D02*
X005589Y006649D01*
X004827Y006661D02*
X005109Y006379D01*
X004573Y006665D02*
X004989Y006249D01*
X004319Y006679D02*
X004879Y006119D01*
X004759Y005009D02*
X004759Y005979D01*
X004065Y006673D02*
X004759Y005979D01*
X005081Y006657D02*
X005219Y006519D01*
X004879Y004959D02*
X004879Y006119D01*
X003049Y004889D02*
X003579Y004359D01*
X005843Y006673D02*
X005843Y006769D01*
X005843Y006799D01*
X007367Y004589D02*
X007367Y005245D01*
X007367Y005275D01*
X006351Y006576D02*
X006351Y006769D01*
X006351Y006799D01*
X006097Y006707D02*
X006097Y006769D01*
X006097Y006799D01*
X005589Y006649D02*
X005589Y006769D01*
X005589Y006799D01*
X007113Y004589D02*
X007113Y005245D01*
X007113Y005275D01*
X004319Y006679D02*
X004319Y006769D01*
X004319Y006799D01*
X005335Y004765D02*
X005335Y006769D01*
X005335Y006799D01*
X004065Y006673D02*
X004065Y006769D01*
X004065Y006799D01*
X005081Y006657D02*
X005081Y006769D01*
X005081Y006799D01*
X004319Y004919D02*
X004319Y005245D01*
X004319Y005275D01*
X004827Y006661D02*
X004827Y006769D01*
X004827Y006799D01*
X007875Y004589D02*
X007875Y005245D01*
X007875Y005275D01*
X004573Y005003D02*
X004573Y005245D01*
X004573Y005275D01*
X003811Y004801D02*
X003811Y005245D01*
X003811Y005275D01*
X004573Y006665D02*
X004573Y006769D01*
X004573Y006799D01*
X003049Y004889D02*
X003049Y005245D01*
X003049Y005275D01*
X007621Y004589D02*
X007621Y005245D01*
X007621Y005275D01*
X004065Y004865D02*
X004065Y005245D01*
X004065Y005275D01*
X006605Y005275D02*
X006879Y005549D01*
X010274Y005549D01*
X006375Y005275D02*
X006749Y005649D01*
X006689Y004099D02*
X006689Y004569D01*
X006679Y004579D02*
X006689Y004569D01*
X005659Y003069D02*
X006689Y004099D01*
X003579Y003299D02*
X003579Y004359D01*
X006749Y005649D02*
X009889Y005649D01*
X010249Y006009D01*
X011659Y006009D01*
X006351Y005275D02*
X006375Y005275D01*
X006097Y005245D02*
X006611Y005759D01*
X009859Y005759D01*
X010674Y006574D01*
X010674Y006574D01*
X011324Y006574D01*
G54D17*
X005839Y005009D02*
X006269Y004579D01*
X005839Y005009D02*
X005839Y006219D01*
X006049Y006429D01*
X007361Y006429D02*
X007361Y006509D01*
X006605Y006613D02*
X006605Y006769D01*
X006605Y006613D02*
X006609Y006609D01*
X006859Y006609D02*
X006859Y006769D01*
X003049Y005275D02*
X003049Y006169D01*
X003929Y007049D01*
X007259Y007049D01*
X007361Y006946D01*
X006269Y004579D02*
X006679Y004579D01*
X006849Y004579D01*
X006049Y006429D02*
X007361Y006429D01*
X007361Y006509D02*
X007361Y006946D01*
G54D18*
X002499Y002499D02*
X002499Y007199D01*
X011999Y007199D01*
X011999Y002499D02*
X011999Y007199D01*
X002499Y002499D02*
X011999Y002499D01*
G54D19*
X008518Y006109D03*
X009280Y006109D03*
X011324Y006574D03*
X011324Y007024D03*
X010674Y007024D03*
X010674Y006574D03*
G54D20*
X006351Y006769D03*
X006097Y006769D03*
X010274Y005549D03*
X010274Y005299D03*
X010274Y005049D03*
X011724Y005549D03*
X011724Y005049D03*
X004065Y006769D03*
X004319Y006769D03*
X004573Y006769D03*
X004827Y006769D03*
X005081Y006769D03*
X005335Y006769D03*
X005589Y006769D03*
X005843Y006769D03*
X006859Y006769D03*
X007367Y006769D03*
X007621Y006769D03*
X007875Y006769D03*
X007875Y005245D03*
X007621Y005245D03*
X007367Y005245D03*
X007113Y005245D03*
X006859Y005245D03*
X006605Y005245D03*
X003303Y005245D03*
X003049Y005245D03*
X006351Y005245D03*
X004573Y005245D03*
X004319Y005245D03*
X004065Y005245D03*
X003811Y005245D03*
X006849Y004325D03*
X007103Y004579D03*
X007103Y004325D03*
X007357Y004579D03*
X007357Y004325D03*
X007611Y004579D03*
X007611Y004325D03*
X007865Y004579D03*
X007865Y004325D03*
X006097Y005245D03*
X009123Y006959D03*
X008869Y006959D03*
X008615Y006959D03*
X006605Y006769D03*
X003557Y005245D03*
G54D21*
X010999Y005299D03*
G54D22*
X010399Y005299D03*
G54D23*
X011699Y002799D03*
X011699Y006799D03*
X002799Y002799D03*
G54D24*
X006849Y004579D03*
X009377Y006959D03*
M02*