%FSDAX42Y42*%
%MOMM*%
%SFA1B1*%

%IPPOS*%
%AMD26*
4,1,8,0.779780,0.759460,-0.779780,0.759460,-1.059180,0.480060,-1.059180,-0.480060,-0.779780,-0.759460,0.779780,-0.759460,1.059180,-0.480060,1.059180,0.480060,0.779780,0.759460,0.0*
1,1,0.560000,0.779780,0.480060*
1,1,0.560000,-0.779780,0.480060*
1,1,0.560000,-0.779780,-0.480060*
1,1,0.560000,0.779780,-0.480060*
%
%AMD27*
4,1,8,-0.314960,-0.749300,0.314960,-0.749300,0.574040,-0.490220,0.574040,0.490220,0.314960,0.749300,-0.314960,0.749300,-0.574040,0.490220,-0.574040,-0.490220,-0.314960,-0.749300,0.0*
1,1,0.520000,-0.314960,-0.490220*
1,1,0.520000,0.314960,-0.490220*
1,1,0.520000,0.314960,0.490220*
1,1,0.520000,-0.314960,0.490220*
%
%AMD29*
4,1,8,0.327660,-0.731520,0.731520,-0.327660,0.731520,0.010160,0.010160,0.731520,-0.327660,0.731520,-0.731520,0.327660,-0.731520,-0.010160,-0.010160,-0.731520,0.327660,-0.731520,0.0*
1,1,0.480000,0.160020,-0.561340*
1,1,0.480000,0.561340,-0.160020*
1,1,0.480000,-0.160020,0.561340*
1,1,0.480000,-0.561340,0.160020*
%
%AMD30*
4,1,8,-0.505460,-0.350520,0.505460,-0.350520,0.675640,-0.180340,0.675640,0.180340,0.505460,0.350520,-0.505460,0.350520,-0.675640,0.180340,-0.675640,-0.180340,-0.505460,-0.350520,0.0*
1,1,0.340000,-0.505460,-0.180340*
1,1,0.340000,0.505460,-0.180340*
1,1,0.340000,0.505460,0.180340*
1,1,0.340000,-0.505460,0.180340*
%
%AMD31*
4,1,8,0.749300,-0.284480,0.749300,0.284480,0.510540,0.525780,-0.510540,0.525780,-0.749300,0.284480,-0.749300,-0.284480,-0.510540,-0.525780,0.510540,-0.525780,0.749300,-0.284480,0.0*
1,1,0.480000,0.510540,-0.284480*
1,1,0.480000,0.510540,0.284480*
1,1,0.480000,-0.510540,0.284480*
1,1,0.480000,-0.510540,-0.284480*
%
%ADD18C,0.250000*%
G04~CAMADD=26~8~0.0~0.0~834.6~598.4~110.2~0.0~15~0.0~0.0~0.0~0.0~0~0.0~0.0~0.0~0.0~0~0.0~0.0~0.0~0.0~834.6~598.4*
%ADD26D26*%
G04~CAMADD=27~8~0.0~0.0~452.8~590.6~102.4~0.0~15~0.0~0.0~0.0~0.0~0~0.0~0.0~0.0~0.0~0~0.0~0.0~0.0~180.0~452.0~590.0*
%ADD27D27*%
%ADD28O,0.819998X3.319993*%
G04~CAMADD=29~8~0.0~0.0~413.4~590.6~94.5~0.0~15~0.0~0.0~0.0~0.0~0~0.0~0.0~0.0~0.0~0~0.0~0.0~0.0~225.0~632.0~631.0*
%ADD29D29*%
G04~CAMADD=30~8~0.0~0.0~531.5~275.6~66.9~0.0~15~0.0~0.0~0.0~0.0~0~0.0~0.0~0.0~0.0~0~0.0~0.0~0.0~180.0~532.0~276.0*
%ADD30D30*%
G04~CAMADD=31~8~0.0~0.0~413.4~590.6~94.5~0.0~15~0.0~0.0~0.0~0.0~0~0.0~0.0~0.0~0.0~0~0.0~0.0~0.0~270.0~592.0~413.0*
%ADD31D31*%
%ADD32C,2.819994*%
%ADD33C,2.319995*%
%ADD34C,7.319985*%
%ADD35O,0.819998X2.319995*%
%ADD36C,3.319993*%
%ADD37R,2.319995X2.319995*%
%LN3dp-glcd-1*%
%LPD*%
G54D18*
X002499Y002499D02*
X002499Y007199D01*
X011999Y007199D01*
X011999Y002499D02*
X011999Y007199D01*
X002499Y002499D02*
X011999Y002499D01*
G54D26*
X006309Y006284D03*
X006309Y006574D03*
G54D27*
X003402Y004129D03*
X003577Y004129D03*
X007537Y006509D03*
X007361Y006509D03*
G54D28*
X003499Y002899D03*
X003579Y002899D03*
X003659Y002899D03*
X003739Y002899D03*
X004059Y002899D03*
X003979Y002899D03*
X003899Y002899D03*
X003819Y002899D03*
X004459Y002899D03*
X004539Y002899D03*
X004619Y002899D03*
X004699Y002899D03*
X004379Y002899D03*
X004299Y002899D03*
X004219Y002899D03*
X004139Y002899D03*
X005419Y002899D03*
X005499Y002899D03*
X005579Y002899D03*
X005659Y002899D03*
X005739Y002899D03*
X005099Y002899D03*
X005179Y002899D03*
X005259Y002899D03*
X005339Y002899D03*
X005019Y002899D03*
X004939Y002899D03*
X004859Y002899D03*
X004779Y002899D03*
G54D29*
X006315Y003925D03*
X006443Y004053D03*
G54D30*
X006339Y004414D03*
X006339Y004224D03*
X006539Y004319D03*
G54D31*
X006609Y006429D03*
X006609Y006609D03*
X006859Y006429D03*
X006859Y006609D03*
G54D32*
X008518Y006109D03*
X009280Y006109D03*
X011324Y006574D03*
X011324Y007024D03*
X010674Y007024D03*
X010674Y006574D03*
G54D33*
X006351Y006769D03*
X006097Y006769D03*
X010274Y005549D03*
X010274Y005299D03*
X010274Y005049D03*
X011724Y005549D03*
X011724Y005049D03*
X004065Y006769D03*
X004319Y006769D03*
X004573Y006769D03*
X004827Y006769D03*
X005081Y006769D03*
X005335Y006769D03*
X005589Y006769D03*
X005843Y006769D03*
X006859Y006769D03*
X007367Y006769D03*
X007621Y006769D03*
X007875Y006769D03*
X007875Y005245D03*
X007621Y005245D03*
X007367Y005245D03*
X007113Y005245D03*
X006859Y005245D03*
X006605Y005245D03*
X003303Y005245D03*
X003049Y005245D03*
X006351Y005245D03*
X004573Y005245D03*
X004319Y005245D03*
X004065Y005245D03*
X003811Y005245D03*
X006849Y004325D03*
X007103Y004579D03*
X007103Y004325D03*
X007357Y004579D03*
X007357Y004325D03*
X007611Y004579D03*
X007611Y004325D03*
X007865Y004579D03*
X007865Y004325D03*
X006097Y005245D03*
X009123Y006959D03*
X008869Y006959D03*
X008615Y006959D03*
X006605Y006769D03*
X003557Y005245D03*
G54D34*
X010999Y005299D03*
G54D35*
X010399Y005299D03*
G54D36*
X011699Y002799D03*
X011699Y006799D03*
X002799Y002799D03*
G54D37*
X006849Y004579D03*
X009377Y006959D03*
M02*