%FSDAX42Y42*%
%MOMM*%
%SFA1B1*%

%IPPOS*%
%ADD16C,0.499999*%
%ADD18C,0.250000*%
%ADD19C,2.499995*%
%ADD20C,1.999996*%
%ADD21C,6.999986*%
%ADD22O,0.499999X1.999996*%
%ADD23C,2.999994*%
%ADD24R,1.999996X1.999996*%
%ADD25O,0.539999X0.499999*%
%LN3dp-glcd-1*%
%LPD*%
G36*
X011999Y002499D02*
X002499Y002499D01*
X002499Y007199D01*
X002887Y007199D01*
X002891Y007186D01*
X002879Y007179D01*
X002709Y007009D01*
X002697Y006990D01*
X002693Y006969D01*
X002693Y005759D01*
X002697Y005738D01*
X002709Y005719D01*
X002929Y005499D01*
X002948Y005487D01*
X002969Y005483D01*
X003446Y005483D01*
X003501Y005428D01*
X003501Y005362D01*
X003491Y005359D01*
X003464Y005338D01*
X003443Y005311D01*
X003430Y005279D01*
X003426Y005245D01*
X003430Y005211D01*
X003443Y005179D01*
X003464Y005152D01*
X003491Y005131D01*
X003523Y005118D01*
X003557Y005114D01*
X003591Y005118D01*
X003623Y005131D01*
X003650Y005152D01*
X003671Y005179D01*
X003677Y005195D01*
X003691Y005195D01*
X003697Y005179D01*
X003718Y005152D01*
X003745Y005131D01*
X003777Y005118D01*
X003811Y005114D01*
X003845Y005118D01*
X003877Y005131D01*
X003904Y005152D01*
X003925Y005179D01*
X003931Y005195D01*
X003945Y005195D01*
X003951Y005179D01*
X003972Y005152D01*
X003999Y005131D01*
X004031Y005118D01*
X004065Y005114D01*
X004099Y005118D01*
X004131Y005131D01*
X004158Y005152D01*
X004179Y005179D01*
X004185Y005195D01*
X004199Y005195D01*
X004205Y005179D01*
X004226Y005152D01*
X004253Y005131D01*
X004285Y005118D01*
X004319Y005114D01*
X004353Y005118D01*
X004385Y005131D01*
X004412Y005152D01*
X004433Y005179D01*
X004439Y005195D01*
X004453Y005195D01*
X004459Y005179D01*
X004480Y005152D01*
X004507Y005131D01*
X004539Y005118D01*
X004573Y005114D01*
X004607Y005118D01*
X004639Y005131D01*
X004666Y005152D01*
X004687Y005179D01*
X004693Y005195D01*
X004707Y005195D01*
X004713Y005179D01*
X004734Y005152D01*
X004761Y005131D01*
X004793Y005118D01*
X004827Y005114D01*
X004861Y005118D01*
X004893Y005131D01*
X004920Y005152D01*
X004941Y005179D01*
X004947Y005195D01*
X004961Y005195D01*
X004967Y005179D01*
X004988Y005152D01*
X005015Y005131D01*
X005047Y005118D01*
X005081Y005114D01*
X005115Y005118D01*
X005147Y005131D01*
X005174Y005152D01*
X005195Y005179D01*
X005201Y005195D01*
X005215Y005195D01*
X005221Y005179D01*
X005242Y005152D01*
X005269Y005131D01*
X005301Y005118D01*
X005335Y005114D01*
X005369Y005118D01*
X005401Y005131D01*
X005428Y005152D01*
X005449Y005179D01*
X005455Y005195D01*
X005469Y005195D01*
X005475Y005179D01*
X005496Y005152D01*
X005523Y005131D01*
X005555Y005118D01*
X005589Y005114D01*
X005623Y005118D01*
X005655Y005131D01*
X005682Y005152D01*
X005703Y005179D01*
X005709Y005195D01*
X005723Y005195D01*
X005729Y005179D01*
X005750Y005152D01*
X005777Y005131D01*
X005809Y005118D01*
X005843Y005114D01*
X005877Y005118D01*
X005909Y005131D01*
X005936Y005152D01*
X005957Y005179D01*
X005963Y005195D01*
X005977Y005195D01*
X005983Y005179D01*
X006004Y005152D01*
X006031Y005131D01*
X006063Y005118D01*
X006097Y005114D01*
X006131Y005118D01*
X006163Y005131D01*
X006190Y005152D01*
X006211Y005179D01*
X006217Y005195D01*
X006231Y005195D01*
X006237Y005179D01*
X006258Y005152D01*
X006285Y005131D01*
X006317Y005118D01*
X006351Y005114D01*
X006385Y005118D01*
X006417Y005131D01*
X006444Y005152D01*
X006465Y005179D01*
X006471Y005195D01*
X006485Y005195D01*
X006491Y005179D01*
X006512Y005152D01*
X006539Y005131D01*
X006571Y005118D01*
X006605Y005114D01*
X006639Y005118D01*
X006671Y005131D01*
X006698Y005152D01*
X006719Y005179D01*
X006725Y005195D01*
X006739Y005195D01*
X006745Y005179D01*
X006766Y005152D01*
X006793Y005131D01*
X006825Y005118D01*
X006859Y005114D01*
X006893Y005118D01*
X006925Y005131D01*
X006952Y005152D01*
X006973Y005179D01*
X006979Y005195D01*
X006993Y005195D01*
X006999Y005179D01*
X007020Y005152D01*
X007047Y005131D01*
X007079Y005118D01*
X007113Y005114D01*
X007147Y005118D01*
X007179Y005131D01*
X007206Y005152D01*
X007227Y005179D01*
X007233Y005195D01*
X007247Y005195D01*
X007253Y005179D01*
X007274Y005152D01*
X007301Y005131D01*
X007333Y005118D01*
X007367Y005114D01*
X007401Y005118D01*
X007433Y005131D01*
X007460Y005152D01*
X007481Y005179D01*
X007487Y005195D01*
X007501Y005195D01*
X007507Y005179D01*
X007528Y005152D01*
X007555Y005131D01*
X007587Y005118D01*
X007621Y005114D01*
X007655Y005118D01*
X007687Y005131D01*
X007714Y005152D01*
X007735Y005179D01*
X007741Y005195D01*
X007755Y005195D01*
X007761Y005179D01*
X007782Y005152D01*
X007809Y005131D01*
X007841Y005118D01*
X007875Y005114D01*
X007909Y005118D01*
X007941Y005131D01*
X007968Y005152D01*
X007989Y005179D01*
X008002Y005211D01*
X008006Y005245D01*
X008002Y005279D01*
X007989Y005311D01*
X007968Y005338D01*
X007941Y005359D01*
X007909Y005372D01*
X007875Y005376D01*
X007841Y005372D01*
X007809Y005359D01*
X007782Y005338D01*
X007761Y005311D01*
X007755Y005295D01*
X007741Y005295D01*
X007735Y005311D01*
X007714Y005338D01*
X007687Y005359D01*
X007655Y005372D01*
X007621Y005376D01*
X007587Y005372D01*
X007555Y005359D01*
X007528Y005338D01*
X007507Y005311D01*
X007501Y005295D01*
X007487Y005295D01*
X007481Y005311D01*
X007460Y005338D01*
X007433Y005359D01*
X007401Y005372D01*
X007367Y005376D01*
X007333Y005372D01*
X007301Y005359D01*
X007274Y005338D01*
X007253Y005311D01*
X007247Y005295D01*
X007233Y005295D01*
X007227Y005311D01*
X007206Y005338D01*
X007179Y005359D01*
X007147Y005372D01*
X007113Y005376D01*
X007079Y005372D01*
X007047Y005359D01*
X007020Y005338D01*
X006999Y005311D01*
X006993Y005295D01*
X006979Y005295D01*
X006973Y005311D01*
X006952Y005338D01*
X006925Y005359D01*
X006893Y005372D01*
X006859Y005376D01*
X006825Y005372D01*
X006793Y005359D01*
X006766Y005338D01*
X006745Y005311D01*
X006739Y005295D01*
X006725Y005295D01*
X006719Y005311D01*
X006698Y005338D01*
X006671Y005359D01*
X006639Y005372D01*
X006605Y005376D01*
X006571Y005372D01*
X006539Y005359D01*
X006512Y005338D01*
X006491Y005311D01*
X006485Y005295D01*
X006471Y005295D01*
X006465Y005311D01*
X006444Y005338D01*
X006417Y005359D01*
X006385Y005372D01*
X006351Y005376D01*
X006317Y005372D01*
X006285Y005359D01*
X006258Y005338D01*
X006237Y005311D01*
X006231Y005295D01*
X006217Y005295D01*
X006211Y005311D01*
X006190Y005338D01*
X006163Y005359D01*
X006131Y005372D01*
X006097Y005376D01*
X006063Y005372D01*
X006031Y005359D01*
X006004Y005338D01*
X005983Y005311D01*
X005977Y005295D01*
X005963Y005295D01*
X005957Y005311D01*
X005936Y005338D01*
X005909Y005359D01*
X005877Y005372D01*
X005843Y005376D01*
X005809Y005372D01*
X005777Y005359D01*
X005750Y005338D01*
X005729Y005311D01*
X005723Y005295D01*
X005709Y005295D01*
X005703Y005311D01*
X005682Y005338D01*
X005655Y005359D01*
X005623Y005372D01*
X005589Y005376D01*
X005555Y005372D01*
X005523Y005359D01*
X005496Y005338D01*
X005475Y005311D01*
X005469Y005295D01*
X005455Y005295D01*
X005449Y005311D01*
X005428Y005338D01*
X005401Y005359D01*
X005369Y005372D01*
X005335Y005376D01*
X005301Y005372D01*
X005269Y005359D01*
X005242Y005338D01*
X005221Y005311D01*
X005215Y005295D01*
X005201Y005295D01*
X005195Y005311D01*
X005174Y005338D01*
X005147Y005359D01*
X005115Y005372D01*
X005081Y005376D01*
X005047Y005372D01*
X005015Y005359D01*
X004988Y005338D01*
X004967Y005311D01*
X004961Y005295D01*
X004947Y005295D01*
X004941Y005311D01*
X004920Y005338D01*
X004893Y005359D01*
X004861Y005372D01*
X004827Y005376D01*
X004793Y005372D01*
X004761Y005359D01*
X004734Y005338D01*
X004713Y005311D01*
X004707Y005295D01*
X004693Y005295D01*
X004687Y005311D01*
X004666Y005338D01*
X004639Y005359D01*
X004607Y005372D01*
X004573Y005376D01*
X004539Y005372D01*
X004507Y005359D01*
X004480Y005338D01*
X004459Y005311D01*
X004453Y005295D01*
X004439Y005295D01*
X004433Y005311D01*
X004412Y005338D01*
X004385Y005359D01*
X004353Y005372D01*
X004319Y005376D01*
X004285Y005372D01*
X004253Y005359D01*
X004226Y005338D01*
X004205Y005311D01*
X004199Y005295D01*
X004185Y005295D01*
X004179Y005311D01*
X004158Y005338D01*
X004131Y005359D01*
X004099Y005372D01*
X004065Y005376D01*
X004031Y005372D01*
X003999Y005359D01*
X003972Y005338D01*
X003951Y005311D01*
X003945Y005295D01*
X003931Y005295D01*
X003925Y005311D01*
X003904Y005338D01*
X003877Y005359D01*
X003845Y005372D01*
X003811Y005376D01*
X003777Y005372D01*
X003745Y005359D01*
X003718Y005338D01*
X003697Y005311D01*
X003691Y005295D01*
X003677Y005295D01*
X003671Y005311D01*
X003650Y005338D01*
X003623Y005359D01*
X003613Y005362D01*
X003613Y005451D01*
X003609Y005472D01*
X003597Y005491D01*
X003509Y005579D01*
X003490Y005591D01*
X003469Y005595D01*
X002992Y005595D01*
X002805Y005782D01*
X002805Y006946D01*
X002942Y007083D01*
X006823Y007083D01*
X006828Y007071D01*
X006648Y006892D01*
X006639Y006896D01*
X006605Y006900D01*
X006571Y006896D01*
X006539Y006883D01*
X006512Y006862D01*
X006491Y006835D01*
X006485Y006819D01*
X006471Y006819D01*
X006465Y006835D01*
X006444Y006862D01*
X006417Y006883D01*
X006385Y006896D01*
X006351Y006900D01*
X006317Y006896D01*
X006285Y006883D01*
X006258Y006862D01*
X006237Y006835D01*
X006231Y006819D01*
X006217Y006819D01*
X006211Y006835D01*
X006190Y006862D01*
X006163Y006883D01*
X006131Y006896D01*
X006097Y006900D01*
X006063Y006896D01*
X006031Y006883D01*
X006004Y006862D01*
X005983Y006835D01*
X005977Y006819D01*
X005963Y006819D01*
X005957Y006835D01*
X005936Y006862D01*
X005909Y006883D01*
X005877Y006896D01*
X005843Y006900D01*
X005809Y006896D01*
X005777Y006883D01*
X005750Y006862D01*
X005729Y006835D01*
X005723Y006819D01*
X005709Y006819D01*
X005703Y006835D01*
X005682Y006862D01*
X005655Y006883D01*
X005623Y006896D01*
X005589Y006900D01*
X005555Y006896D01*
X005523Y006883D01*
X005496Y006862D01*
X005475Y006835D01*
X005469Y006819D01*
X005455Y006819D01*
X005449Y006835D01*
X005428Y006862D01*
X005401Y006883D01*
X005369Y006896D01*
X005335Y006900D01*
X005301Y006896D01*
X005269Y006883D01*
X005242Y006862D01*
X005221Y006835D01*
X005215Y006819D01*
X005201Y006819D01*
X005195Y006835D01*
X005174Y006862D01*
X005147Y006883D01*
X005115Y006896D01*
X005081Y006900D01*
X005047Y006896D01*
X005015Y006883D01*
X004988Y006862D01*
X004967Y006835D01*
X004961Y006819D01*
X004947Y006819D01*
X004941Y006835D01*
X004920Y006862D01*
X004893Y006883D01*
X004861Y006896D01*
X004827Y006900D01*
X004793Y006896D01*
X004761Y006883D01*
X004734Y006862D01*
X004713Y006835D01*
X004707Y006819D01*
X004693Y006819D01*
X004687Y006835D01*
X004666Y006862D01*
X004639Y006883D01*
X004607Y006896D01*
X004573Y006900D01*
X004539Y006896D01*
X004507Y006883D01*
X004480Y006862D01*
X004459Y006835D01*
X004453Y006819D01*
X004439Y006819D01*
X004433Y006835D01*
X004412Y006862D01*
X004385Y006883D01*
X004353Y006896D01*
X004319Y006900D01*
X004285Y006896D01*
X004253Y006883D01*
X004226Y006862D01*
X004205Y006835D01*
X004199Y006819D01*
X004185Y006819D01*
X004179Y006835D01*
X004158Y006862D01*
X004131Y006883D01*
X004099Y006896D01*
X004065Y006900D01*
X004031Y006896D01*
X003999Y006883D01*
X003972Y006862D01*
X003951Y006835D01*
X003945Y006819D01*
X003931Y006819D01*
X003925Y006835D01*
X003904Y006862D01*
X003877Y006883D01*
X003845Y006896D01*
X003811Y006900D01*
X003777Y006896D01*
X003745Y006883D01*
X003718Y006862D01*
X003697Y006835D01*
X003691Y006819D01*
X003677Y006819D01*
X003671Y006835D01*
X003650Y006862D01*
X003623Y006883D01*
X003591Y006896D01*
X003557Y006900D01*
X003523Y006896D01*
X003491Y006883D01*
X003464Y006862D01*
X003443Y006835D01*
X003437Y006819D01*
X003423Y006819D01*
X003417Y006835D01*
X003396Y006862D01*
X003369Y006883D01*
X003337Y006896D01*
X003303Y006900D01*
X003269Y006896D01*
X003237Y006883D01*
X003210Y006862D01*
X003192Y006838D01*
X003180Y006843D01*
X003180Y006869D01*
X003177Y006881D01*
X003171Y006891D01*
X003161Y006897D01*
X003149Y006900D01*
X002949Y006900D01*
X002937Y006897D01*
X002927Y006891D01*
X002921Y006881D01*
X002918Y006869D01*
X002918Y006669D01*
X002921Y006657D01*
X002927Y006647D01*
X002937Y006641D01*
X002949Y006638D01*
X003149Y006638D01*
X003161Y006641D01*
X003171Y006647D01*
X003177Y006657D01*
X003180Y006669D01*
X003180Y006695D01*
X003192Y006700D01*
X003210Y006676D01*
X003237Y006655D01*
X003269Y006642D01*
X003303Y006638D01*
X003337Y006642D01*
X003369Y006655D01*
X003396Y006676D01*
X003417Y006703D01*
X003423Y006719D01*
X003437Y006719D01*
X003443Y006703D01*
X003464Y006676D01*
X003491Y006655D01*
X003523Y006642D01*
X003557Y006638D01*
X003591Y006642D01*
X003623Y006655D01*
X003650Y006676D01*
X003671Y006703D01*
X003677Y006719D01*
X003691Y006719D01*
X003697Y006703D01*
X003718Y006676D01*
X003745Y006655D01*
X003777Y006642D01*
X003811Y006638D01*
X003845Y006642D01*
X003877Y006655D01*
X003904Y006676D01*
X003925Y006703D01*
X003931Y006719D01*
X003945Y006719D01*
X003951Y006703D01*
X003972Y006676D01*
X003999Y006655D01*
X004031Y006642D01*
X004065Y006638D01*
X004099Y006642D01*
X004131Y006655D01*
X004158Y006676D01*
X004179Y006703D01*
X004185Y006719D01*
X004199Y006719D01*
X004205Y006703D01*
X004226Y006676D01*
X004253Y006655D01*
X004285Y006642D01*
X004319Y006638D01*
X004353Y006642D01*
X004385Y006655D01*
X004412Y006676D01*
X004433Y006703D01*
X004439Y006719D01*
X004453Y006719D01*
X004459Y006703D01*
X004480Y006676D01*
X004507Y006655D01*
X004539Y006642D01*
X004573Y006638D01*
X004607Y006642D01*
X004639Y006655D01*
X004666Y006676D01*
X004687Y006703D01*
X004693Y006719D01*
X004707Y006719D01*
X004713Y006703D01*
X004734Y006676D01*
X004761Y006655D01*
X004793Y006642D01*
X004827Y006638D01*
X004861Y006642D01*
X004893Y006655D01*
X004920Y006676D01*
X004941Y006703D01*
X004947Y006719D01*
X004961Y006719D01*
X004967Y006703D01*
X004988Y006676D01*
X005015Y006655D01*
X005047Y006642D01*
X005081Y006638D01*
X005115Y006642D01*
X005147Y006655D01*
X005174Y006676D01*
X005195Y006703D01*
X005201Y006719D01*
X005215Y006719D01*
X005221Y006703D01*
X005242Y006676D01*
X005269Y006655D01*
X005301Y006642D01*
X005335Y006638D01*
X005369Y006642D01*
X005401Y006655D01*
X005428Y006676D01*
X005449Y006703D01*
X005455Y006719D01*
X005469Y006719D01*
X005475Y006703D01*
X005496Y006676D01*
X005523Y006655D01*
X005555Y006642D01*
X005589Y006638D01*
X005623Y006642D01*
X005655Y006655D01*
X005682Y006676D01*
X005703Y006703D01*
X005709Y006719D01*
X005723Y006719D01*
X005729Y006703D01*
X005750Y006676D01*
X005777Y006655D01*
X005809Y006642D01*
X005843Y006638D01*
X005877Y006642D01*
X005909Y006655D01*
X005936Y006676D01*
X005957Y006703D01*
X005963Y006719D01*
X005977Y006719D01*
X005983Y006703D01*
X006004Y006676D01*
X006031Y006655D01*
X006063Y006642D01*
X006097Y006638D01*
X006131Y006642D01*
X006163Y006655D01*
X006190Y006676D01*
X006211Y006703D01*
X006217Y006719D01*
X006231Y006719D01*
X006237Y006703D01*
X006258Y006676D01*
X006285Y006655D01*
X006317Y006642D01*
X006351Y006638D01*
X006385Y006642D01*
X006417Y006655D01*
X006444Y006676D01*
X006465Y006703D01*
X006471Y006719D01*
X006485Y006719D01*
X006491Y006703D01*
X006512Y006676D01*
X006539Y006655D01*
X006571Y006642D01*
X006605Y006638D01*
X006639Y006642D01*
X006671Y006655D01*
X006698Y006676D01*
X006719Y006703D01*
X006725Y006719D01*
X006739Y006719D01*
X006745Y006703D01*
X006766Y006676D01*
X006793Y006655D01*
X006825Y006642D01*
X006859Y006638D01*
X006893Y006642D01*
X006925Y006655D01*
X006952Y006676D01*
X006973Y006703D01*
X006986Y006735D01*
X006990Y006769D01*
X006986Y006803D01*
X006973Y006835D01*
X006952Y006862D01*
X006936Y006874D01*
X006936Y006886D01*
X006952Y006903D01*
X007317Y006903D01*
X007320Y006890D01*
X007301Y006883D01*
X007274Y006862D01*
X007253Y006835D01*
X007240Y006803D01*
X007236Y006769D01*
X007240Y006735D01*
X007253Y006703D01*
X007274Y006676D01*
X007301Y006655D01*
X007333Y006642D01*
X007367Y006638D01*
X007401Y006642D01*
X007433Y006655D01*
X007460Y006676D01*
X007481Y006703D01*
X007494Y006735D01*
X007498Y006769D01*
X007494Y006803D01*
X007481Y006835D01*
X007460Y006862D01*
X007433Y006883D01*
X007414Y006890D01*
X007417Y006903D01*
X008336Y006903D01*
X008499Y006739D01*
X008518Y006727D01*
X008539Y006723D01*
X008689Y006723D01*
X008710Y006727D01*
X008729Y006739D01*
X008826Y006836D01*
X008835Y006832D01*
X008869Y006828D01*
X008903Y006832D01*
X008935Y006845D01*
X008962Y006866D01*
X008983Y006893D01*
X008996Y006925D01*
X009000Y006959D01*
X008996Y006993D01*
X008983Y007025D01*
X008962Y007052D01*
X008938Y007070D01*
X008941Y007083D01*
X009174Y007083D01*
X009246Y007010D01*
X009246Y006859D01*
X009249Y006847D01*
X009255Y006837D01*
X009265Y006831D01*
X009277Y006828D01*
X009477Y006828D01*
X009489Y006831D01*
X009499Y006837D01*
X009505Y006847D01*
X009508Y006859D01*
X009508Y007059D01*
X009505Y007071D01*
X009499Y007081D01*
X009489Y007087D01*
X009477Y007090D01*
X009326Y007090D01*
X009237Y007179D01*
X009225Y007186D01*
X009229Y007199D01*
X011999Y007199D01*
X011999Y002499D01*
G37*
%LN3dp-glcd-2*%
%LPC*%
G36*
X011811Y005024D02*
X011749Y005024D01*
X011749Y004962D01*
X011769Y004970D01*
X011788Y004985D01*
X011803Y005004D01*
X011811Y005024D01*
G37*
G36*
X011749Y005136D02*
X011749Y005074D01*
X011811Y005074D01*
X011803Y005094D01*
X011788Y005113D01*
X011769Y005128D01*
X011749Y005136D01*
G37*
G36*
X011699Y005136D02*
X011679Y005128D01*
X011660Y005113D01*
X011645Y005094D01*
X011637Y005074D01*
X011699Y005074D01*
X011699Y005136D01*
G37*
G36*
X010974Y005274D02*
X010660Y005274D01*
X010662Y005246D01*
X010675Y005194D01*
X010695Y005144D01*
X010723Y005099D01*
X010758Y005058D01*
X010799Y005023D01*
X010844Y004995D01*
X010894Y004975D01*
X010946Y004962D01*
X010974Y004960D01*
X010974Y005274D01*
G37*
G36*
X010274Y005180D02*
X010240Y005176D01*
X010208Y005163D01*
X010181Y005142D01*
X010160Y005115D01*
X010147Y005083D01*
X010143Y005049D01*
X010147Y005015D01*
X010160Y004983D01*
X010181Y004956D01*
X010208Y004935D01*
X010240Y004922D01*
X010274Y004918D01*
X010308Y004922D01*
X010340Y004935D01*
X010367Y004956D01*
X010388Y004983D01*
X010401Y005015D01*
X010405Y005049D01*
X010401Y005083D01*
X010388Y005115D01*
X010367Y005142D01*
X010340Y005163D01*
X010308Y005176D01*
X010274Y005180D01*
G37*
G36*
X011699Y005024D02*
X011637Y005024D01*
X011645Y005004D01*
X011660Y004985D01*
X011679Y004970D01*
X011699Y004962D01*
X011699Y005024D01*
G37*
G36*
X011338Y005274D02*
X011024Y005274D01*
X011024Y004960D01*
X011052Y004962D01*
X011104Y004975D01*
X011154Y004995D01*
X011199Y005023D01*
X011240Y005058D01*
X011275Y005099D01*
X011303Y005144D01*
X011323Y005194D01*
X011336Y005246D01*
X011338Y005274D01*
G37*
G36*
X003278Y005332D02*
X003258Y005324D01*
X003239Y005309D01*
X003224Y005290D01*
X003216Y005270D01*
X003278Y005270D01*
X003278Y005332D01*
G37*
G36*
X010361Y005274D02*
X010299Y005274D01*
X010299Y005212D01*
X010319Y005220D01*
X010338Y005235D01*
X010353Y005254D01*
X010361Y005274D01*
G37*
G36*
X010249Y005386D02*
X010229Y005378D01*
X010210Y005363D01*
X010195Y005344D01*
X010187Y005324D01*
X010249Y005324D01*
X010249Y005386D01*
G37*
G36*
X003328Y005332D02*
X003328Y005270D01*
X003390Y005270D01*
X003382Y005290D01*
X003367Y005309D01*
X003348Y005324D01*
X003328Y005332D01*
G37*
G36*
X003278Y005220D02*
X003216Y005220D01*
X003224Y005200D01*
X003239Y005181D01*
X003258Y005166D01*
X003278Y005158D01*
X003278Y005220D01*
G37*
G36*
X003049Y005376D02*
X003015Y005372D01*
X002983Y005359D01*
X002956Y005338D01*
X002935Y005311D01*
X002922Y005279D01*
X002918Y005245D01*
X002922Y005211D01*
X002935Y005179D01*
X002956Y005152D01*
X002983Y005131D01*
X003015Y005118D01*
X003049Y005114D01*
X003083Y005118D01*
X003115Y005131D01*
X003142Y005152D01*
X003163Y005179D01*
X003176Y005211D01*
X003180Y005245D01*
X003176Y005279D01*
X003163Y005311D01*
X003142Y005338D01*
X003115Y005359D01*
X003083Y005372D01*
X003049Y005376D01*
G37*
G36*
X010249Y005274D02*
X010187Y005274D01*
X010195Y005254D01*
X010210Y005235D01*
X010229Y005220D01*
X010249Y005212D01*
X010249Y005274D01*
G37*
G36*
X003390Y005220D02*
X003328Y005220D01*
X003328Y005158D01*
X003348Y005166D01*
X003367Y005181D01*
X003382Y005200D01*
X003390Y005220D01*
G37*
G36*
X007586Y004300D02*
X007524Y004300D01*
X007532Y004280D01*
X007547Y004261D01*
X007566Y004246D01*
X007586Y004238D01*
X007586Y004300D01*
G37*
G36*
X007698Y004300D02*
X007636Y004300D01*
X007636Y004238D01*
X007656Y004246D01*
X007675Y004261D01*
X007690Y004280D01*
X007698Y004300D01*
G37*
G36*
X007840Y004300D02*
X007778Y004300D01*
X007786Y004280D01*
X007801Y004261D01*
X007820Y004246D01*
X007840Y004238D01*
X007840Y004300D01*
G37*
G36*
X007444Y004300D02*
X007382Y004300D01*
X007382Y004238D01*
X007402Y004246D01*
X007421Y004261D01*
X007436Y004280D01*
X007444Y004300D01*
G37*
G36*
X002799Y002980D02*
X002798Y002980D01*
X002796Y002980D01*
X002767Y002977D01*
X002764Y002976D01*
X002761Y002976D01*
X002732Y002968D01*
X002730Y002966D01*
X002727Y002965D01*
X002701Y002951D01*
X002699Y002949D01*
X002696Y002948D01*
X002673Y002929D01*
X002671Y002927D01*
X002671Y002927D01*
X002669Y002925D01*
X002650Y002902D01*
X002649Y002899D01*
X002647Y002897D01*
X002633Y002871D01*
X002632Y002868D01*
X002630Y002866D01*
X002622Y002837D01*
X002622Y002834D01*
X002621Y002831D01*
X002618Y002802D01*
X002618Y002799D01*
X002618Y002799D01*
X002618Y002796D01*
X002621Y002767D01*
X002622Y002764D01*
X002622Y002761D01*
X002630Y002732D01*
X002632Y002730D01*
X002633Y002727D01*
X002647Y002701D01*
X002649Y002699D01*
X002650Y002696D01*
X002669Y002673D01*
X002671Y002671D01*
X002671Y002671D01*
X002673Y002669D01*
X002696Y002650D01*
X002699Y002649D01*
X002701Y002647D01*
X002727Y002633D01*
X002730Y002632D01*
X002732Y002630D01*
X002761Y002622D01*
X002764Y002622D01*
X002767Y002621D01*
X002796Y002618D01*
X002798Y002618D01*
X002799Y002618D01*
X002800Y002618D01*
X002802Y002618D01*
X002831Y002621D01*
X002834Y002622D01*
X002837Y002622D01*
X002866Y002630D01*
X002868Y002632D01*
X002871Y002633D01*
X002897Y002647D01*
X002899Y002649D01*
X002902Y002650D01*
X002925Y002669D01*
X002927Y002671D01*
X002927Y002671D01*
X002929Y002673D01*
X002948Y002696D01*
X002949Y002699D01*
X002951Y002701D01*
X002965Y002727D01*
X002966Y002730D01*
X002968Y002732D01*
X002976Y002761D01*
X002976Y002764D01*
X002977Y002767D01*
X002980Y002796D01*
X002980Y002799D01*
X002980Y002799D01*
X002980Y002802D01*
X002977Y002831D01*
X002976Y002834D01*
X002976Y002837D01*
X002968Y002866D01*
X002966Y002868D01*
X002965Y002871D01*
X002951Y002897D01*
X002949Y002899D01*
X002948Y002902D01*
X002929Y002925D01*
X002927Y002927D01*
X002927Y002927D01*
X002925Y002929D01*
X002902Y002948D01*
X002899Y002949D01*
X002897Y002951D01*
X002871Y002965D01*
X002868Y002966D01*
X002866Y002968D01*
X002837Y002976D01*
X002834Y002976D01*
X002831Y002977D01*
X002802Y002980D01*
X002800Y002980D01*
X002799Y002980D01*
G37*
G36*
X011699Y002980D02*
X011698Y002980D01*
X011696Y002980D01*
X011667Y002977D01*
X011664Y002976D01*
X011661Y002976D01*
X011632Y002968D01*
X011630Y002966D01*
X011627Y002965D01*
X011601Y002951D01*
X011599Y002949D01*
X011596Y002948D01*
X011573Y002929D01*
X011571Y002927D01*
X011571Y002927D01*
X011569Y002925D01*
X011550Y002902D01*
X011549Y002899D01*
X011547Y002897D01*
X011533Y002871D01*
X011532Y002868D01*
X011530Y002866D01*
X011522Y002837D01*
X011522Y002834D01*
X011521Y002831D01*
X011518Y002802D01*
X011518Y002799D01*
X011518Y002799D01*
X011518Y002796D01*
X011521Y002767D01*
X011522Y002764D01*
X011522Y002761D01*
X011530Y002732D01*
X011532Y002730D01*
X011533Y002727D01*
X011547Y002701D01*
X011549Y002699D01*
X011550Y002696D01*
X011569Y002673D01*
X011571Y002671D01*
X011571Y002671D01*
X011573Y002669D01*
X011596Y002650D01*
X011599Y002649D01*
X011601Y002647D01*
X011627Y002633D01*
X011630Y002632D01*
X011632Y002630D01*
X011661Y002622D01*
X011664Y002622D01*
X011667Y002621D01*
X011696Y002618D01*
X011698Y002618D01*
X011699Y002618D01*
X011700Y002618D01*
X011702Y002618D01*
X011731Y002621D01*
X011734Y002622D01*
X011737Y002622D01*
X011766Y002630D01*
X011768Y002632D01*
X011771Y002633D01*
X011797Y002647D01*
X011799Y002649D01*
X011802Y002650D01*
X011825Y002669D01*
X011827Y002671D01*
X011827Y002671D01*
X011829Y002673D01*
X011848Y002696D01*
X011849Y002699D01*
X011851Y002701D01*
X011865Y002727D01*
X011866Y002730D01*
X011868Y002732D01*
X011876Y002761D01*
X011876Y002764D01*
X011877Y002767D01*
X011880Y002796D01*
X011880Y002799D01*
X011880Y002799D01*
X011880Y002802D01*
X011877Y002831D01*
X011876Y002834D01*
X011876Y002837D01*
X011868Y002866D01*
X011866Y002868D01*
X011865Y002871D01*
X011851Y002897D01*
X011849Y002899D01*
X011848Y002902D01*
X011829Y002925D01*
X011827Y002927D01*
X011827Y002927D01*
X011825Y002929D01*
X011802Y002948D01*
X011799Y002949D01*
X011797Y002951D01*
X011771Y002965D01*
X011768Y002966D01*
X011766Y002968D01*
X011737Y002976D01*
X011734Y002976D01*
X011731Y002977D01*
X011702Y002980D01*
X011700Y002980D01*
X011699Y002980D01*
G37*
G36*
X007332Y004300D02*
X007270Y004300D01*
X007278Y004280D01*
X007293Y004261D01*
X007312Y004246D01*
X007332Y004238D01*
X007332Y004300D01*
G37*
G36*
X007952Y004300D02*
X007890Y004300D01*
X007890Y004238D01*
X007910Y004246D01*
X007929Y004261D01*
X007944Y004280D01*
X007952Y004300D01*
G37*
G36*
X007840Y004412D02*
X007820Y004404D01*
X007801Y004389D01*
X007786Y004370D01*
X007778Y004350D01*
X007840Y004350D01*
X007840Y004412D01*
G37*
G36*
X007890Y004412D02*
X007890Y004350D01*
X007952Y004350D01*
X007944Y004370D01*
X007929Y004389D01*
X007910Y004404D01*
X007890Y004412D01*
G37*
G36*
X007865Y004710D02*
X007831Y004706D01*
X007799Y004693D01*
X007772Y004672D01*
X007751Y004645D01*
X007745Y004629D01*
X007731Y004629D01*
X007725Y004645D01*
X007704Y004672D01*
X007677Y004693D01*
X007645Y004706D01*
X007611Y004710D01*
X007577Y004706D01*
X007545Y004693D01*
X007518Y004672D01*
X007497Y004645D01*
X007491Y004629D01*
X007477Y004629D01*
X007471Y004645D01*
X007450Y004672D01*
X007423Y004693D01*
X007391Y004706D01*
X007357Y004710D01*
X007323Y004706D01*
X007291Y004693D01*
X007264Y004672D01*
X007243Y004645D01*
X007237Y004629D01*
X007223Y004629D01*
X007217Y004645D01*
X007196Y004672D01*
X007169Y004693D01*
X007137Y004706D01*
X007103Y004710D01*
X007069Y004706D01*
X007037Y004693D01*
X007010Y004672D01*
X006992Y004648D01*
X006980Y004653D01*
X006980Y004679D01*
X006977Y004691D01*
X006971Y004701D01*
X006961Y004707D01*
X006949Y004710D01*
X006749Y004710D01*
X006737Y004707D01*
X006727Y004701D01*
X006721Y004691D01*
X006718Y004679D01*
X006718Y004479D01*
X006721Y004467D01*
X006727Y004457D01*
X006737Y004451D01*
X006749Y004448D01*
X006775Y004448D01*
X006780Y004436D01*
X006756Y004418D01*
X006735Y004391D01*
X006722Y004359D01*
X006718Y004325D01*
X006722Y004291D01*
X006735Y004259D01*
X006756Y004232D01*
X006783Y004211D01*
X006815Y004198D01*
X006849Y004194D01*
X006883Y004198D01*
X006915Y004211D01*
X006942Y004232D01*
X006963Y004259D01*
X006969Y004275D01*
X006983Y004275D01*
X006989Y004259D01*
X007010Y004232D01*
X007037Y004211D01*
X007069Y004198D01*
X007103Y004194D01*
X007137Y004198D01*
X007169Y004211D01*
X007196Y004232D01*
X007217Y004259D01*
X007230Y004291D01*
X007234Y004325D01*
X007230Y004359D01*
X007217Y004391D01*
X007196Y004418D01*
X007169Y004439D01*
X007153Y004445D01*
X007153Y004459D01*
X007169Y004465D01*
X007196Y004486D01*
X007217Y004513D01*
X007223Y004529D01*
X007237Y004529D01*
X007243Y004513D01*
X007264Y004486D01*
X007291Y004465D01*
X007323Y004452D01*
X007357Y004448D01*
X007391Y004452D01*
X007423Y004465D01*
X007450Y004486D01*
X007471Y004513D01*
X007477Y004529D01*
X007491Y004529D01*
X007497Y004513D01*
X007518Y004486D01*
X007545Y004465D01*
X007577Y004452D01*
X007611Y004448D01*
X007645Y004452D01*
X007677Y004465D01*
X007704Y004486D01*
X007725Y004513D01*
X007731Y004529D01*
X007745Y004529D01*
X007751Y004513D01*
X007772Y004486D01*
X007799Y004465D01*
X007831Y004452D01*
X007865Y004448D01*
X007899Y004452D01*
X007931Y004465D01*
X007958Y004486D01*
X007979Y004513D01*
X007992Y004545D01*
X007996Y004579D01*
X007992Y004613D01*
X007979Y004645D01*
X007958Y004672D01*
X007931Y004693D01*
X007899Y004706D01*
X007865Y004710D01*
G37*
G36*
X007636Y004412D02*
X007636Y004350D01*
X007698Y004350D01*
X007690Y004370D01*
X007675Y004389D01*
X007656Y004404D01*
X007636Y004412D01*
G37*
G36*
X007332Y004412D02*
X007312Y004404D01*
X007293Y004389D01*
X007278Y004370D01*
X007270Y004350D01*
X007332Y004350D01*
X007332Y004412D01*
G37*
G36*
X007382Y004412D02*
X007382Y004350D01*
X007444Y004350D01*
X007436Y004370D01*
X007421Y004389D01*
X007402Y004404D01*
X007382Y004412D01*
G37*
G36*
X007586Y004412D02*
X007566Y004404D01*
X007547Y004389D01*
X007532Y004370D01*
X007524Y004350D01*
X007586Y004350D01*
X007586Y004412D01*
G37*
G36*
X010299Y005386D02*
X010299Y005324D01*
X010361Y005324D01*
X010353Y005344D01*
X010338Y005363D01*
X010319Y005378D01*
X010299Y005386D01*
G37*
G36*
X007900Y006856D02*
X007900Y006794D01*
X007962Y006794D01*
X007954Y006814D01*
X007939Y006833D01*
X007920Y006848D01*
X007900Y006856D01*
G37*
G36*
X010674Y007180D02*
X010644Y007177D01*
X010614Y007168D01*
X010587Y007154D01*
X010564Y007134D01*
X010544Y007112D01*
X010530Y007084D01*
X010521Y007054D01*
X010518Y007024D01*
X010521Y006994D01*
X010530Y006964D01*
X010544Y006937D01*
X010564Y006914D01*
X010587Y006894D01*
X010614Y006880D01*
X010644Y006871D01*
X010674Y006868D01*
X010704Y006871D01*
X010734Y006880D01*
X010761Y006894D01*
X010784Y006914D01*
X010804Y006937D01*
X010818Y006964D01*
X010827Y006994D01*
X010830Y007024D01*
X010827Y007054D01*
X010818Y007084D01*
X010804Y007112D01*
X010784Y007134D01*
X010761Y007154D01*
X010734Y007168D01*
X010704Y007177D01*
X010674Y007180D01*
G37*
G36*
X009098Y006934D02*
X009036Y006934D01*
X009044Y006914D01*
X009059Y006895D01*
X009078Y006880D01*
X009098Y006872D01*
X009098Y006934D01*
G37*
G36*
X007850Y006856D02*
X007830Y006848D01*
X007811Y006833D01*
X007796Y006814D01*
X007788Y006794D01*
X007850Y006794D01*
X007850Y006856D01*
G37*
G36*
X007115Y006825D02*
X007112Y006825D01*
X007090Y006821D01*
X007071Y006809D01*
X007059Y006790D01*
X007055Y006769D01*
X007059Y006748D01*
X007071Y006729D01*
X007090Y006717D01*
X007112Y006713D01*
X007115Y006713D01*
X007136Y006717D01*
X007155Y006729D01*
X007167Y006748D01*
X007171Y006769D01*
X007167Y006790D01*
X007155Y006809D01*
X007136Y006821D01*
X007115Y006825D01*
G37*
G36*
X007596Y006856D02*
X007576Y006848D01*
X007557Y006833D01*
X007542Y006814D01*
X007534Y006794D01*
X007596Y006794D01*
X007596Y006856D01*
G37*
G36*
X007646Y006856D02*
X007646Y006794D01*
X007708Y006794D01*
X007700Y006814D01*
X007685Y006833D01*
X007666Y006848D01*
X007646Y006856D01*
G37*
G36*
X009210Y006934D02*
X009148Y006934D01*
X009148Y006872D01*
X009168Y006880D01*
X009187Y006895D01*
X009202Y006914D01*
X009210Y006934D01*
G37*
G36*
X009148Y007046D02*
X009148Y006985D01*
X009210Y006985D01*
X009202Y007004D01*
X009187Y007023D01*
X009168Y007038D01*
X009148Y007046D01*
G37*
G36*
X011299Y007137D02*
X011294Y007136D01*
X011266Y007124D01*
X011242Y007106D01*
X011224Y007082D01*
X011212Y007054D01*
X011211Y007049D01*
X011299Y007049D01*
X011299Y007137D01*
G37*
G36*
X011349Y007137D02*
X011349Y007049D01*
X011437Y007049D01*
X011436Y007054D01*
X011424Y007082D01*
X011406Y007106D01*
X011382Y007124D01*
X011354Y007136D01*
X011349Y007137D01*
G37*
G36*
X009098Y007046D02*
X009078Y007038D01*
X009059Y007023D01*
X009044Y007004D01*
X009036Y006985D01*
X009098Y006985D01*
X009098Y007046D01*
G37*
G36*
X011299Y006999D02*
X011211Y006999D01*
X011212Y006994D01*
X011224Y006966D01*
X011242Y006942D01*
X011266Y006924D01*
X011294Y006912D01*
X011299Y006911D01*
X011299Y006999D01*
G37*
G36*
X011437Y006999D02*
X011349Y006999D01*
X011349Y006911D01*
X011354Y006912D01*
X011382Y006924D01*
X011406Y006942D01*
X011424Y006966D01*
X011436Y006994D01*
X011437Y006999D01*
G37*
G36*
X011699Y006980D02*
X011698Y006980D01*
X011696Y006980D01*
X011667Y006977D01*
X011664Y006976D01*
X011661Y006976D01*
X011632Y006968D01*
X011630Y006966D01*
X011627Y006965D01*
X011601Y006951D01*
X011599Y006949D01*
X011596Y006948D01*
X011573Y006929D01*
X011571Y006927D01*
X011571Y006927D01*
X011569Y006925D01*
X011550Y006902D01*
X011549Y006899D01*
X011547Y006897D01*
X011533Y006871D01*
X011532Y006868D01*
X011530Y006866D01*
X011522Y006837D01*
X011522Y006834D01*
X011521Y006831D01*
X011518Y006802D01*
X011518Y006799D01*
X011518Y006799D01*
X011518Y006796D01*
X011521Y006767D01*
X011522Y006764D01*
X011522Y006761D01*
X011530Y006732D01*
X011532Y006731D01*
X011533Y006727D01*
X011547Y006701D01*
X011549Y006699D01*
X011550Y006696D01*
X011569Y006673D01*
X011571Y006671D01*
X011571Y006671D01*
X011573Y006669D01*
X011596Y006650D01*
X011599Y006649D01*
X011601Y006647D01*
X011627Y006633D01*
X011630Y006632D01*
X011632Y006630D01*
X011661Y006622D01*
X011664Y006622D01*
X011667Y006621D01*
X011696Y006618D01*
X011698Y006618D01*
X011699Y006618D01*
X011700Y006618D01*
X011702Y006618D01*
X011731Y006621D01*
X011734Y006622D01*
X011737Y006622D01*
X011766Y006630D01*
X011768Y006632D01*
X011771Y006633D01*
X011797Y006647D01*
X011799Y006649D01*
X011802Y006650D01*
X011825Y006669D01*
X011827Y006671D01*
X011827Y006671D01*
X011829Y006673D01*
X011848Y006696D01*
X011849Y006699D01*
X011851Y006701D01*
X011865Y006727D01*
X011866Y006731D01*
X011868Y006732D01*
X011876Y006761D01*
X011876Y006764D01*
X011877Y006767D01*
X011880Y006796D01*
X011880Y006799D01*
X011880Y006799D01*
X011880Y006802D01*
X011877Y006831D01*
X011876Y006834D01*
X011876Y006837D01*
X011868Y006866D01*
X011866Y006868D01*
X011865Y006871D01*
X011851Y006897D01*
X011849Y006899D01*
X011848Y006902D01*
X011829Y006925D01*
X011827Y006927D01*
X011827Y006927D01*
X011825Y006929D01*
X011802Y006948D01*
X011799Y006949D01*
X011797Y006951D01*
X011771Y006965D01*
X011768Y006966D01*
X011766Y006968D01*
X011737Y006976D01*
X011734Y006976D01*
X011731Y006977D01*
X011702Y006980D01*
X011700Y006980D01*
X011699Y006980D01*
G37*
G36*
X008518Y006265D02*
X008488Y006262D01*
X008458Y006253D01*
X008431Y006239D01*
X008408Y006219D01*
X008388Y006196D01*
X008374Y006169D01*
X008365Y006139D01*
X008362Y006109D01*
X008365Y006079D01*
X008374Y006049D01*
X008388Y006022D01*
X008408Y005999D01*
X008431Y005979D01*
X008458Y005965D01*
X008488Y005956D01*
X008518Y005953D01*
X008548Y005956D01*
X008578Y005965D01*
X008605Y005979D01*
X008628Y005999D01*
X008648Y006022D01*
X008662Y006049D01*
X008671Y006079D01*
X008674Y006109D01*
X008671Y006139D01*
X008662Y006169D01*
X008648Y006196D01*
X008628Y006219D01*
X008605Y006239D01*
X008578Y006253D01*
X008548Y006262D01*
X008518Y006265D01*
G37*
G36*
X009255Y006084D02*
X009167Y006084D01*
X009168Y006079D01*
X009180Y006051D01*
X009198Y006027D01*
X009222Y006009D01*
X009250Y005997D01*
X009255Y005996D01*
X009255Y006084D01*
G37*
G36*
X009393Y006084D02*
X009305Y006084D01*
X009305Y005996D01*
X009310Y005997D01*
X009338Y006009D01*
X009362Y006027D01*
X009380Y006051D01*
X009392Y006079D01*
X009393Y006084D01*
G37*
G36*
X011724Y005680D02*
X011690Y005676D01*
X011658Y005663D01*
X011631Y005642D01*
X011610Y005615D01*
X011597Y005583D01*
X011593Y005549D01*
X011597Y005515D01*
X011610Y005483D01*
X011631Y005456D01*
X011658Y005435D01*
X011690Y005422D01*
X011724Y005418D01*
X011758Y005422D01*
X011790Y005435D01*
X011817Y005456D01*
X011838Y005483D01*
X011851Y005515D01*
X011855Y005549D01*
X011851Y005583D01*
X011838Y005615D01*
X011817Y005642D01*
X011790Y005663D01*
X011758Y005676D01*
X011724Y005680D01*
G37*
G36*
X010974Y005638D02*
X010946Y005636D01*
X010894Y005623D01*
X010844Y005603D01*
X010799Y005575D01*
X010758Y005540D01*
X010723Y005499D01*
X010695Y005454D01*
X010675Y005404D01*
X010662Y005352D01*
X010660Y005324D01*
X010974Y005324D01*
X010974Y005638D01*
G37*
G36*
X011024Y005638D02*
X011024Y005324D01*
X011338Y005324D01*
X011336Y005352D01*
X011323Y005404D01*
X011303Y005454D01*
X011275Y005499D01*
X011240Y005540D01*
X011199Y005575D01*
X011154Y005603D01*
X011104Y005623D01*
X011052Y005636D01*
X011024Y005638D01*
G37*
G36*
X010274Y005680D02*
X010240Y005676D01*
X010208Y005663D01*
X010181Y005642D01*
X010160Y005615D01*
X010147Y005583D01*
X010143Y005549D01*
X010147Y005515D01*
X010160Y005483D01*
X010181Y005456D01*
X010208Y005435D01*
X010240Y005422D01*
X010274Y005418D01*
X010308Y005422D01*
X010340Y005435D01*
X010367Y005456D01*
X010388Y005483D01*
X010401Y005515D01*
X010405Y005549D01*
X010401Y005583D01*
X010388Y005615D01*
X010367Y005642D01*
X010340Y005663D01*
X010308Y005676D01*
X010274Y005680D01*
G37*
G36*
X009255Y006223D02*
X009250Y006221D01*
X009222Y006209D01*
X009198Y006191D01*
X009180Y006167D01*
X009168Y006139D01*
X009167Y006134D01*
X009255Y006134D01*
X009255Y006223D01*
G37*
G36*
X007708Y006744D02*
X007646Y006744D01*
X007646Y006682D01*
X007666Y006690D01*
X007685Y006705D01*
X007700Y006724D01*
X007708Y006744D01*
G37*
G36*
X007850Y006744D02*
X007788Y006744D01*
X007796Y006724D01*
X007811Y006705D01*
X007830Y006690D01*
X007850Y006682D01*
X007850Y006744D01*
G37*
G36*
X007962Y006744D02*
X007900Y006744D01*
X007900Y006682D01*
X007920Y006690D01*
X007939Y006705D01*
X007954Y006724D01*
X007962Y006744D01*
G37*
G36*
X007596Y006744D02*
X007534Y006744D01*
X007542Y006724D01*
X007557Y006705D01*
X007576Y006690D01*
X007596Y006682D01*
X007596Y006744D01*
G37*
G36*
X009305Y006223D02*
X009305Y006134D01*
X009393Y006134D01*
X009392Y006139D01*
X009380Y006167D01*
X009362Y006191D01*
X009338Y006209D01*
X009310Y006221D01*
X009305Y006223D01*
G37*
G36*
X010674Y006731D02*
X010644Y006727D01*
X010614Y006718D01*
X010587Y006704D01*
X010564Y006684D01*
X010544Y006661D01*
X010530Y006634D01*
X010521Y006604D01*
X010518Y006574D01*
X010521Y006544D01*
X010530Y006514D01*
X010544Y006487D01*
X010564Y006464D01*
X010587Y006444D01*
X010614Y006430D01*
X010644Y006421D01*
X010674Y006418D01*
X010704Y006421D01*
X010734Y006430D01*
X010761Y006444D01*
X010784Y006464D01*
X010804Y006487D01*
X010818Y006514D01*
X010827Y006544D01*
X010830Y006574D01*
X010827Y006604D01*
X010818Y006634D01*
X010804Y006661D01*
X010784Y006684D01*
X010761Y006704D01*
X010734Y006718D01*
X010704Y006727D01*
X010674Y006731D01*
G37*
G36*
X011324Y006731D02*
X011294Y006727D01*
X011264Y006718D01*
X011237Y006704D01*
X011214Y006684D01*
X011194Y006661D01*
X011180Y006634D01*
X011171Y006604D01*
X011168Y006574D01*
X011171Y006544D01*
X011180Y006514D01*
X011194Y006487D01*
X011214Y006464D01*
X011237Y006444D01*
X011264Y006430D01*
X011294Y006421D01*
X011324Y006418D01*
X011354Y006421D01*
X011384Y006430D01*
X011411Y006444D01*
X011434Y006464D01*
X011454Y006487D01*
X011468Y006514D01*
X011477Y006544D01*
X011480Y006574D01*
X011477Y006604D01*
X011468Y006634D01*
X011454Y006661D01*
X011434Y006684D01*
X011411Y006704D01*
X011384Y006718D01*
X011354Y006727D01*
X011324Y006731D01*
G37*
%LN3dp-glcd-3*%
%LPD*%
G54D16*
X006605Y006703D02*
X006605Y006769D01*
X009197Y007139D02*
X009377Y006959D01*
X002919Y007139D02*
X009197Y007139D01*
X002969Y005539D02*
X003469Y005539D01*
X003557Y005451D01*
X003557Y005245D02*
X003557Y005451D01*
X002749Y005759D02*
X002969Y005539D01*
X002749Y005759D02*
X002749Y006969D01*
X002919Y007139D01*
X008525Y007049D02*
X008615Y006959D01*
X006885Y007049D02*
X008525Y007049D01*
X006605Y006769D02*
X006885Y007049D01*
X008689Y006779D02*
X008869Y006959D01*
X008539Y006779D02*
X008689Y006779D01*
X008359Y006959D02*
X008539Y006779D01*
X006929Y006959D02*
X008359Y006959D01*
X006859Y006889D02*
X006929Y006959D01*
X006859Y006769D02*
X006859Y006889D01*
G54D18*
X002499Y002499D02*
X002499Y007199D01*
X011999Y007199D01*
X011999Y002499D02*
X011999Y007199D01*
X002499Y002499D02*
X011999Y002499D01*
G54D19*
X008518Y006109D03*
X009280Y006109D03*
X011324Y006574D03*
X011324Y007024D03*
X010674Y007024D03*
X010674Y006574D03*
G54D20*
X004827Y005245D03*
X005081Y005245D03*
X005335Y005245D03*
X005589Y005245D03*
X005843Y005245D03*
X003303Y006769D03*
X003557Y006769D03*
X003811Y006769D03*
X006351Y006769D03*
X006097Y006769D03*
X010274Y005549D03*
X010274Y005299D03*
X010274Y005049D03*
X011724Y005549D03*
X011724Y005049D03*
X004065Y006769D03*
X004319Y006769D03*
X004573Y006769D03*
X004827Y006769D03*
X005081Y006769D03*
X005335Y006769D03*
X005589Y006769D03*
X005843Y006769D03*
X006859Y006769D03*
X007367Y006769D03*
X007621Y006769D03*
X007875Y006769D03*
X007875Y005245D03*
X007621Y005245D03*
X007367Y005245D03*
X007113Y005245D03*
X006859Y005245D03*
X006605Y005245D03*
X003303Y005245D03*
X003049Y005245D03*
X006351Y005245D03*
X004573Y005245D03*
X004319Y005245D03*
X004065Y005245D03*
X003811Y005245D03*
X006849Y004325D03*
X007103Y004579D03*
X007103Y004325D03*
X007357Y004579D03*
X007357Y004325D03*
X007611Y004579D03*
X007611Y004325D03*
X007865Y004579D03*
X007865Y004325D03*
X006097Y005245D03*
X009123Y006959D03*
X008869Y006959D03*
X008615Y006959D03*
X006605Y006769D03*
X003557Y005245D03*
G54D21*
X010999Y005299D03*
G54D22*
X010399Y005299D03*
G54D23*
X011699Y002799D03*
X011699Y006799D03*
X002799Y002799D03*
G54D24*
X003049Y006769D03*
X006849Y004579D03*
X009377Y006959D03*
G54D25*
X007113Y006769D03*
M02*